<?xml version="1.0" encoding="utf-8"?>
<!-- Generator: Adobe Illustrator 22.1.0, SVG Export Plug-In . SVG Version: 6.00 Build 0)  -->
<svg version="1.1" xmlns="http://www.w3.org/2000/svg" xmlns:xlink="http://www.w3.org/1999/xlink" x="0px" y="0px"
	 viewBox="0 0 500 500" style="enable-background:new 0 0 500 500;" xml:space="preserve">
<style type="text/css">
	.st0{fill:#FFD96E;}
	.st1{fill:#E4AD7B;}
	.st2{opacity:0.21;fill:#757575;}
	.st3{fill:#FFFFFF;}
</style>
<g id="Layer_2">
</g>
<g id="Layer_3">
</g>
<g id="Layer_4">
	<g id="Layer_5">
	</g>
	<g>
		<path class="st0" d="M361.1,334.9V351v8.8c0,0,11.7-2.9,21.9-33.6l7.3-29.2v17.5l7.3-29.2l4.4,17.5v-40.9l8.8,27.8
			c0,0,5.8-48.2-7.3-49.7l16,16.1l4.4-16.1l8.8,14.6c0,0,11.7-17.5-13.1-64.3l-11.7-49.7l-30.6-48.2L331.9,63l-59.8-13.2
			c0,0-35-4.4-37.9-4.4c-2.9,0-17.5,5.8-17.5,5.8s-23.3,0-30.6,0S137.9,66,133.5,68.9c-4.4,2.9-48.1,57-48.1,57
			s-20.4,45.3-20.4,48.2s-10.2,51.2-10.2,55.5c0,4.4,8.8,42.4,8.8,42.4l1.5,23.4L75.1,275c0,0-4.4,21.9,2.9,30.7
			c0,0,14.6-13.2,10.2-23.4l7.3,27.8l2.9,14.6l21.9,35.1l220.3,7.3L361.1,334.9z"/>
		<path class="st1" d="M108,212.8l17.5-51.2l19-26.3l42.3-24.8c0,0,33.6,1.5,37.9,0s48.1,0,48.1,0l46.7,19l23.3,43.8l-8.8,24.8
			l2.9,23.4l11.7,29.2c0,0,5.8,14.6,10.2,19s5.8,13.2,5.8,13.2l-5.8,51.2l-1.5,29.2c0,0-14.6,30.7-17.5,35.1
			c-2.9,4.4-23.3,32.2-27.7,33.6c-4.4,1.5-56.9,21.9-62.7,21.9s-37.9,0-42.3-1.5c-4.4-1.5-24.8-10.2-27.7-10.2
			c-2.9,0-51.1-51.2-51.1-51.2s-10.2-40.9-10.2-43.8c0-2.9-4.4-48.2-4.4-48.2L108,212.8z"/>
		<g>
			<path d="M141.7,271.2c0.3-0.5,3.3,1.1,8.4,2.1c2.6,0.5,5.7,0.8,9.2,0.8c3.5,0,7.3-0.4,11.4-0.9c4-0.6,7.9-1.3,11.5-1.9
				c3.6-0.6,6.8-1.1,9.5-1.4c5.4-0.7,8.8-0.9,8.9-0.4c0.1,0.5-3.1,1.6-8.4,2.9c-2.6,0.7-5.8,1.4-9.3,2.2c-3.5,0.8-7.4,1.6-11.6,2.2
				c-4.2,0.6-8.2,0.8-11.9,0.7c-3.7-0.2-7.1-0.8-9.7-1.6C144.1,274.1,141.5,271.5,141.7,271.2z"/>
		</g>
		<g>
			<path d="M246.5,260c0.5-0.3,2.3,3.2,7.5,5.8c2.5,1.3,5.8,2.3,9.7,2.6c3.8,0.3,8.1,0,12.6-0.5c9-1.2,17.1-3.4,22.9-4.8
				c5.9-1.5,9.6-2.3,9.7-1.8c0.2,0.5-3.3,2.1-9,4.3c-5.7,2.1-13.8,4.8-23.2,6c-4.7,0.6-9.3,0.8-13.4,0.3c-4.2-0.5-7.9-1.9-10.6-3.7
				c-2.7-1.8-4.4-3.8-5.3-5.4C246.4,261.1,246.2,260.1,246.5,260z"/>
		</g>
		<path class="st2" d="M257.9,220.6c0,0-35.7,16.4-23.6,48.5s10.6,26.3,10.6,26.3s42.2,13.2,9,30.7l-6.8,41.4l24.1-1.4l6.8-38.6
			c0,0,15.1-23.4,4.5-33.6c-10.6-10.2,0-17.5,0-17.5l36.2,11.7l10.6,51.2l7.5,38l12.1,10.2l18.1-57l24.1-78.9l-6-57l-13.6-30.7
			L257.9,220.6z"/>
		<path class="st0" d="M340.4,164.7c0,0-8.5-6.3-5.2,44.2s21.5,71.6,21.5,71.6l18.5,28.8l32.5-74L382,127.6L340.4,164.7z"/>
		<path class="st0" d="M353.1,275.7l2.2,89.9c0,0,51.8-19.7,29.9-91.3S353.1,275.7,353.1,275.7z"/>
		<path class="st0" d="M87.7,252.8l-2.9,89.9c0,0,52.8-16.8,35-89.5S87.7,252.8,87.7,252.8z"/>
		<polygon class="st0" points="164.6,123.5 129.8,171.9 89,220.2 140.1,110.5 		"/>
		<path class="st0" d="M242.2,234.8c0,0,19-30.7,75.9-8.8L242.2,234.8z"/>
		<path class="st0" d="M198.4,236.2c0,0-17.9-30.7-71.5-8.8L198.4,236.2z"/>
		<path class="st3" d="M143,269.1c0,0,25.9-34.5,55.4,0C198.4,269.1,157.8,287.2,143,269.1z"/>
		<path class="st3" d="M249.5,260.3c0,0,25.9-34.5,55.4,0C304.9,260.3,264.3,278.5,249.5,260.3z"/>
		<ellipse cx="170.7" cy="265.5" rx="11.7" ry="11.7"/>
		<ellipse cx="277.2" cy="256.7" rx="11.7" ry="11.7"/>
		<g>
			<path d="M142.9,270.2c-0.4-0.3,1.6-3.3,5.2-7.9c1.8-2.2,3.8-5.1,6.8-7.8c1.5-1.4,3.4-2.6,5.5-3.5c2.1-0.9,4.5-1.3,6.8-1.5
				c4.8-0.2,9.1,0.9,12.8,2.3c3.7,1.4,6.7,3.1,9.3,4.5c5,2.8,8.2,4.4,8,4.9c-0.2,0.5-3.8-0.3-9.1-2.5c-2.7-1.1-5.8-2.5-9.3-3.6
				c-3.5-1.2-7.4-2-11.5-1.8c-4.1,0.2-7.6,1.6-10.3,3.9c-2.7,2.3-5,4.9-7,7C145.9,268.1,143.3,270.5,142.9,270.2z"/>
		</g>
		<g>
			<path d="M247.7,258c-0.3-0.4,2.6-3.3,7.6-7.7c1.3-1.1,2.6-2.3,4.3-3.5c1.7-1.2,3.7-2.3,6-3c2.3-0.7,4.7-1,7-1.3
				c2.4-0.3,4.8-0.6,7.3-0.9c2.5-0.3,5-0.5,7.4-0.8c1.2-0.1,2.6-0.2,4.1,0.1c1.5,0.3,2.7,1.1,3.6,1.8c1,0.7,1.7,1.4,2.5,2.1
				c0.8,0.7,1.5,1.3,2.3,2c1.5,1.3,2.8,2.5,4.1,3.6c4.9,4.5,7.8,7.4,7.5,7.8c-0.3,0.4-3.8-1.9-9.1-5.8c-1.3-1-2.8-2.1-4.3-3.3
				c-0.8-0.6-1.6-1.2-2.4-1.8c-0.8-0.6-1.7-1.3-2.5-1.9c-0.8-0.6-1.6-1-2.4-1.1c-0.8-0.2-1.8-0.1-2.9,0c-2.4,0.3-4.8,0.6-7.3,0.9
				c-2.5,0.3-5,0.5-7.3,0.8c-2.4,0.2-4.6,0.4-6.5,1c-3.8,1-6.9,3.4-9.6,5.3C251.5,256.2,248,258.4,247.7,258z"/>
		</g>
		<g>
			<path d="M179.5,394.3c-0.1-0.2,0.8-1.3,2.9-3c2.1-1.7,5.3-3.9,9.6-6.1c4.3-2.2,9.6-4.3,15.7-6.1c6.1-1.8,12.9-3.1,20-4.3
				c14.3-2.3,27.5-2.9,37-2.7c9.5,0.2,15.3,1,15.3,1.5c0,1.1-23.4,0.2-51.7,4.8c-7.1,1.1-13.8,2.4-19.7,3.9
				c-6,1.5-11.2,3.3-15.5,5.1C184.5,391.2,179.9,394.8,179.5,394.3z"/>
		</g>
	</g>
</g>
</svg>
