<?xml version="1.0" encoding="utf-8"?>
<!-- Generator: Adobe Illustrator 22.1.0, SVG Export Plug-In . SVG Version: 6.00 Build 0)  -->
<svg version="1.1" xmlns="http://www.w3.org/2000/svg" xmlns:xlink="http://www.w3.org/1999/xlink" x="0px" y="0px"
	 viewBox="0 0 500 500" style="enable-background:new 0 0 500 500;" xml:space="preserve">
<style type="text/css">
	.st0{display:none;}
	.st1{fill:#757575;}
	.st2{fill:#E4AD7B;}
	.st3{opacity:0.21;fill:#757575;}
	.st4{fill:#DBBF57;}
	.st5{fill:#FFFFFF;}
	.st6{opacity:0.2;fill:#BC0D00;}
	.st7{opacity:0.1;fill:#BC0D00;}
	.st8{fill:#3D3D3D;}
</style>
<g id="Layer_1" class="st0">
	
		<image style="display:inline;overflow:visible;" width="452" height="700" xlink:href="../../cersei.png"  transform="matrix(1 0 0 1 15 3)">
	</image>
</g>
<g id="Layer_3">
</g>
<g id="Layer_2">
	<g id="Layer_5">
		<path class="st1" d="M-58,78"/>
	</g>
</g>
<g id="Layer_4">
</g>
<g id="Layer_6">
</g>
<g id="Layer_7">
</g>
<g id="Layer_8">
	<g>
		<path class="st2" d="M146.9,379.1c0,0,7.4,52.6,62.9,70.2c0,0,10.8,6.8,63.6,4.1c0,0,31.1-2.7,60.9-40.6
			c29.8-37.9,15.9-73.1,35-81.2c19.1-8.1,15-90.7,15-90.7l-32.5-63.6l-48.7-32.5c0,0-81.2,18.9-82.5,18.9S157,185.4,157,185.4
			l-31.1,44.7v69L146.9,379.1"/>
		<path class="st3" d="M346.4,203l-11,38.3c0,0-31-0.4-35-0.4c-4.1,0-24.4,0-24.4,0l-13.5,8.1v50.1v10.8c0,0,10.8-1.4,10.8,14.9
			c0,16.2,0,16.2,0,16.2s16.2,9.5,18.9-2.7c2.7-12.2-1.4-21.7-1.4-21.7s1.4-14.9-13.5-28.4c0,0,46,13.5,56.8,0s25.7,69,25.7,69
			L399.2,249L346.4,203z"/>
		<path class="st4" d="M133.3,138.8l-23,41.9l-8.1,29.8c0,0-10.8,13.5,0,74.4l9.5,10.8c0,0-6.8,32.5,9.5,46c0,0,5.4,13.5,1.4,29.8
			c0,0,9.5-1.4,10.8-12.2c0,0,9.5,13.5-5.4,27.1c0,0,20.3,5.4,18.9-9.5c-1.4-14.9-2.7-32.5-2.7-32.5l-2.7-31.1l-2.7-39.2
			c0,0,14.9-12.2,12.2-25.7c-2.7-13.5,5.4-27.1,5.4-27.1l10.8-20.3c0,0,6.8,6.8,4.1,10.8s17.6-10.8,17.6-10.8s14.9-14.9,23-2.7
			c8.1,12.2,6.8,6.8,6.8,6.8s14.9-8.1,14.9-17.6c0,0,14.9-1.4,12.2,9.5c0,0,21.7-10.8,21.7-17.6c0,0,17.6,10.8,9.5,20.3
			c0,0,41.9-16.2,37.9-31.1l6.8,35.2c0,0,16.2-4.1,14.9-12.2l12.2,27.1l5.4,21.7l6.8,10.8c0,0,1.4,18.9-8.1,21.7
			c0,0,20.3,8.1,18.9-9.5c0,0,2.4,32.6-5.4,35.2l5.4,18.9l-12.2,24.4l-5.4,23c0,0,29.8-10.8,36.5-28.4s12.2-31.1,12.2-31.1l8.1-33.8
			c0,0,5.4-59.5-8.1-123.1c0,0-17.6-50.1-70.4-65s-152.9-25.7-194.9,55.5"/>
		<path d="M163.7,230.1c0,0,1.6-2.7,22.7-9.5c0,0,32.4,1.4,51.8,14.9v5.4h-19.4l-24.3-10.8H163.7z"/>
		<path d="M345.9,249.1c0,0-1.1-3-21.2-14c0,0-33.2-5.4-55.7,3.8l-1.1,5.3l19.8,4l26.9-5.6L345.9,249.1z"/>
		<path class="st5" d="M176.9,261.2c0,0,23.3-18.9,46.6,6.8C223.5,268,192.4,274.7,176.9,261.2z"/>
		<path class="st5" d="M318.9,272.5c0,0-19-21.9-45.8,0.3C273,272.9,301.6,283.8,318.9,272.5z"/>
		<ellipse cx="200.2" cy="262.6" rx="9.3" ry="8.1"/>
		<ellipse cx="296.4" cy="270.7" rx="9" ry="8.1"/>
		<g>
			<path d="M177.3,261.2c0.1-0.2,0.8,0.1,1.9,0.7c1.1,0.6,2.6,1.6,4.5,2.6c1.9,1,4.2,1.8,7,2.2c2.8,0.4,6,0.4,9.4,0.5
				c13.5,0.4,24.5-0.6,24.6,0.3c0.2,0.9-10.8,3.5-24.7,3.1c-3.4-0.1-6.7-0.2-9.8-0.8c-3.1-0.5-5.8-1.8-7.7-3.2
				c-1.9-1.4-3.2-2.7-4.1-3.6C177.5,262,177.1,261.4,177.3,261.2z"/>
		</g>
		<g>
			<path d="M319.4,273.5c0.1,0.2-0.3,0.8-1.2,1.6c-0.9,0.8-2.3,1.9-4.3,3.1c-1,0.5-2.1,1.1-3.5,1.5c-1.3,0.4-2.8,0.7-4.3,0.8
				c-3.1,0.2-6.2,0-9.5-0.3c-13.4-1.2-23.6-5.1-23.3-6c0.3-0.9,10.7,1.4,23.7,2.6c3.2,0.3,6.4,0.6,9,0.6c2.7,0,5-0.6,6.9-1.4
				c1.9-0.7,3.5-1.5,4.6-2C318.5,273.5,319.2,273.3,319.4,273.5z"/>
		</g>
		<g>
			<path d="M228.9,261.2c-0.4,0.4-2.9-2-7.6-4.5c-2.4-1.2-5.3-2.5-8.7-3.5c-3.4-1-7.3-1.7-11.4-2.1c-4.1-0.4-8.1-0.6-11.6-0.3
				c-3.5,0.3-6.5,1.2-8.8,2.4c-4.7,2.4-6.4,5.5-6.9,5.2c-0.2-0.1,0-1,0.8-2.4c0.8-1.4,2.4-3.3,4.9-4.9c2.5-1.6,5.8-2.9,9.7-3.4
				c3.8-0.5,8-0.4,12.3,0c4.3,0.4,8.4,1.3,12,2.5c3.6,1.2,6.7,2.8,9,4.4C227.3,257.8,229.2,260.9,228.9,261.2z"/>
		</g>
		<g>
			<path d="M268.1,267.9c-0.3-0.2,1.6-3.4,6.4-6.6c2.4-1.6,5.5-3.2,9.1-4.4c3.6-1.2,7.7-2.1,12-2.5c4.3-0.4,8.5-0.6,12.3,0
				c3.8,0.5,7.2,1.8,9.7,3.4c2.5,1.6,4.1,3.5,4.9,4.9c0.8,1.4,1,2.3,0.8,2.4c-0.5,0.3-2.2-2.8-6.9-5.2c-2.3-1.2-5.4-2.1-8.9-2.4
				c-3.5-0.3-7.5-0.1-11.6,0.3c-4.1,0.4-8,1.2-11.4,2.1c-3.4,1-6.4,2.2-8.8,3.5C271,265.9,268.5,268.3,268.1,267.9z"/>
		</g>
		<path class="st6" d="M201.6,377.6c0,0,28.4-20.3,48.7-12.2c0,0,27.1-4.1,41.9,12.2"/>
		<path class="st7" d="M216.6,380.3H276c0,0,2.8,10.9-26.9,14.9C249.1,395.2,224,395.2,216.6,380.3z"/>
		<path class="st1" d="M125.9,152.3c0,0,4.1-17,23-40h230.7c0,0,16.9,10.4,19.6,28.2"/>
		<ellipse class="st1" cx="262.5" cy="101.5" rx="40.6" ry="36.5"/>
		<rect x="255.8" y="42" class="st1" width="12.2" height="40.6"/>
		
			<rect x="286.9" y="52.8" transform="matrix(0.7071 0.7071 -0.7071 0.7071 137.5153 -185.7459)" class="st1" width="12.2" height="40.6"/>
		
			<rect x="228.7" y="52.8" transform="matrix(-0.7071 0.7071 -0.7071 -0.7071 452.5117 -41.1911)" class="st1" width="12.2" height="40.6"/>
		<circle class="st8" cx="262.5" cy="98.8" r="24.4"/>
	</g>
</g>
</svg>
