<?xml version="1.0" encoding="utf-8"?>
<!-- Generator: Adobe Illustrator 22.1.0, SVG Export Plug-In . SVG Version: 6.00 Build 0)  -->
<svg version="1.1" id="Layer_1" xmlns="http://www.w3.org/2000/svg" xmlns:xlink="http://www.w3.org/1999/xlink" x="0px" y="0px"
	 viewBox="0 0 500 500" style="enable-background:new 0 0 500 500;" xml:space="preserve">
<style type="text/css">
	.st0{fill:#FFFFFF;}
	.st1{fill:url(#SVGID_1_);}
	.st2{fill:url(#SVGID_2_);}
	.st3{fill:url(#SVGID_3_);}
	.st4{fill:url(#SVGID_4_);}
	.st5{fill:url(#SVGID_5_);}
	.st6{fill:url(#SVGID_6_);}
</style>
<g>
	<path class="st0" d="M407.5,10C453,10,490,47,490,92.5v314.9c0,45.5-37,82.5-82.5,82.5H92.5C47,490,10,453,10,407.5V92.5
		C10,47,47,10,92.5,10H407.5 M407.5,0H92.5C41.4,0,0,41.4,0,92.5v314.9C0,458.6,41.4,500,92.5,500h314.9c51.1,0,92.5-41.4,92.5-92.5
		V92.5C500,41.4,458.6,0,407.5,0L407.5,0z"/>
</g>
<g>
	<radialGradient id="SVGID_1_" cx="118" cy="119" r="47" gradientUnits="userSpaceOnUse">
		<stop  offset="0" style="stop-color:#F09819"/>
		<stop  offset="0.293" style="stop-color:#F1951A"/>
		<stop  offset="0.5099" style="stop-color:#F38C1D"/>
		<stop  offset="0.7022" style="stop-color:#F67C22"/>
		<stop  offset="0.8792" style="stop-color:#FB6529"/>
		<stop  offset="1" style="stop-color:#FF512F"/>
	</radialGradient>
	<circle class="st1" cx="118" cy="119" r="47"/>
</g>
<g>
	<radialGradient id="SVGID_2_" cx="118" cy="250" r="47" gradientUnits="userSpaceOnUse">
		<stop  offset="0" style="stop-color:#F09819"/>
		<stop  offset="0.293" style="stop-color:#F1951A"/>
		<stop  offset="0.5099" style="stop-color:#F38C1D"/>
		<stop  offset="0.7022" style="stop-color:#F67C22"/>
		<stop  offset="0.8792" style="stop-color:#FB6529"/>
		<stop  offset="1" style="stop-color:#FF512F"/>
	</radialGradient>
	<circle class="st2" cx="118" cy="250" r="47"/>
</g>
<g>
	<radialGradient id="SVGID_3_" cx="383" cy="250" r="47" gradientUnits="userSpaceOnUse">
		<stop  offset="0" style="stop-color:#F09819"/>
		<stop  offset="0.293" style="stop-color:#F1951A"/>
		<stop  offset="0.5099" style="stop-color:#F38C1D"/>
		<stop  offset="0.7022" style="stop-color:#F67C22"/>
		<stop  offset="0.8792" style="stop-color:#FB6529"/>
		<stop  offset="1" style="stop-color:#FF512F"/>
	</radialGradient>
	<circle class="st3" cx="383" cy="250" r="47"/>
</g>
<g>
	<radialGradient id="SVGID_4_" cx="383" cy="119" r="47" gradientUnits="userSpaceOnUse">
		<stop  offset="0" style="stop-color:#F09819"/>
		<stop  offset="0.293" style="stop-color:#F1951A"/>
		<stop  offset="0.5099" style="stop-color:#F38C1D"/>
		<stop  offset="0.7022" style="stop-color:#F67C22"/>
		<stop  offset="0.8792" style="stop-color:#FB6529"/>
		<stop  offset="1" style="stop-color:#FF512F"/>
	</radialGradient>
	<circle class="st4" cx="383" cy="119" r="47"/>
</g>
<g>
	<radialGradient id="SVGID_5_" cx="118" cy="384" r="47" gradientUnits="userSpaceOnUse">
		<stop  offset="0" style="stop-color:#F09819"/>
		<stop  offset="0.293" style="stop-color:#F1951A"/>
		<stop  offset="0.5099" style="stop-color:#F38C1D"/>
		<stop  offset="0.7022" style="stop-color:#F67C22"/>
		<stop  offset="0.8792" style="stop-color:#FB6529"/>
		<stop  offset="1" style="stop-color:#FF512F"/>
	</radialGradient>
	<circle class="st5" cx="118" cy="384" r="47"/>
</g>
<g>
	<radialGradient id="SVGID_6_" cx="383" cy="384" r="47" gradientUnits="userSpaceOnUse">
		<stop  offset="0" style="stop-color:#F09819"/>
		<stop  offset="0.293" style="stop-color:#F1951A"/>
		<stop  offset="0.5099" style="stop-color:#F38C1D"/>
		<stop  offset="0.7022" style="stop-color:#F67C22"/>
		<stop  offset="0.8792" style="stop-color:#FB6529"/>
		<stop  offset="1" style="stop-color:#FF512F"/>
	</radialGradient>
	<circle class="st6" cx="383" cy="384" r="47"/>
</g>
</svg>
