<?xml version="1.0" encoding="utf-8"?>
<!-- Generator: Adobe Illustrator 22.1.0, SVG Export Plug-In . SVG Version: 6.00 Build 0)  -->
<svg version="1.1" xmlns="http://www.w3.org/2000/svg" xmlns:xlink="http://www.w3.org/1999/xlink" x="0px" y="0px"
	 viewBox="0 0 500 500" style="enable-background:new 0 0 500 500;" xml:space="preserve">
<style type="text/css">
	.st0{display:none;}
	.st1{fill:#E4AD7B;}
	.st2{opacity:0.21;}
	.st3{fill:#757575;}
	.st4{fill:#141419;}
	.st5{fill:#FFFFFF;}
	.st6{fill:#FFFF00;}
</style>
<g id="Layer_1" class="st0">
	
		<image style="display:inline;overflow:visible;" width="970" height="582" xlink:href="../../drogo.jpg"  transform="matrix(0.6478 0 0 0.6478 -64 51)">
	</image>
</g>
<g id="Layer_3">
</g>
<g id="Layer_6">
</g>
<g id="Layer_2">
</g>
<g id="Layer_4">
</g>
<g id="Layer_5">
</g>
<g id="Layer_7">
	<g>
		<g>
			<path class="st1" d="M93.6,175.4l-10.6,6.9L76,192l4.7,13.9l7.1,12.5l7.1,15.3l14.1,11.1l16.5,16.7l82.3,79.2
				c0,0,124.6-12.5,126.9-13.9s28.2-26.4,28.2-26.4l18.8-50l7.1-12.5l11.8-5.6l7.1-11.1l7.1-13.9v-18.1l-7.1-13.9
				c0,0-21.2-36.1-23.5-37.5c-2.4-1.4-30.6-26.4-32.9-27.8c-2.4-1.4-77.6-6.9-77.6-6.9l-101.1,6.9l-35.3,15.3l-23.5,26.4L93.6,175.4
				z"/>
		</g>
		<g class="st2">
			<path class="st3" d="M359.2,145.5l-32.9,59.7l-44.7,19.5c0,0-7.1,23.6,18.8,34.7c0,0,4.7,2.8,0,6.9l-4.7,16.7l21.2,4.2l-6.1-10.7
				c0,0,1.4-4.5-1-12.9c-2.4-8.3-9.4-20.8-9.4-20.8h40l28.2,36.1l18.8-41.7l7.1-77.8L359.2,145.5z"/>
			<path class="st1" d="M318.8,288.3l-24.3-4.8l5-17.5c4.1-3.6,0.3-6,0.1-6.1c-26-11.2-19.2-35.1-19.1-35.3l0.1-0.3l44.7-19.5
				l33.3-60.4l37.1,14.6l0,0.4l-7.1,77.9l-19.6,43.5l-29.3-37.5h-37.6c1.7,3,7,13,8.9,20c2.1,7.5,1.3,12,1,12.9L318.8,288.3z
				 M297.1,282.6l18,3.5l-5.4-9.6l0.1-0.2c0,0,1.3-4.5-1-12.6c-2.3-8.2-9.3-20.6-9.4-20.7l-0.5-0.9h42.3l27.2,34.8l17.9-39.8l7-77.3
				l-33.4-13.2l-32.5,59.1l-44.6,19.4c-0.7,2.6-5.1,23.7,18.4,33.8c0.2,0.1,5.4,3.2,0.4,7.8L297.1,282.6z"/>
		</g>
		<g>
			<polygon class="st1" points="124.2,276.1 173.6,313.6 190,278.9 131.2,252.9 			"/>
		</g>
		<g>
			<g>
				<path d="M103.3,223.4c-1.5,0.3-4.9-3.1-5.3-7.9c-0.1-0.6-0.1-1.2,0-1.7c0-0.6,0.2-1.2,0.4-1.8c0.5-1.1,1.3-2.1,2.5-2.8
					c1.2-0.7,2.7-1,3.7-0.9c1,0.1,1.4,0.3,1.4,0.6c0,0.3-0.4,0.5-0.8,0.7c-0.4,0.3-0.7,0.6-0.9,1.1c-0.3,0.5-0.5,1.2-0.6,1.9
					c0,0.4-0.1,0.8,0,1.2c0,0.5,0.1,1,0.1,1.5C104.2,219.5,104.9,223.1,103.3,223.4z"/>
			</g>
		</g>
		<g>
			<g>
				<path d="M398.9,217.1c-1.4-0.5-0.7-2.8,0.7-5.4c1.4-2.6,3.1-4.7,4.8-4.6c1.6,0.1,2.4,2.7,0.8,5.7
					C403.5,215.8,400.3,217.6,398.9,217.1z"/>
			</g>
		</g>
		<g>
			<path class="st4" d="M281.5,80.9h-48.9c-3.4,0-6.1-2.7-6.1-6.1V48.1c0-3.4,2.7-6.1,6.1-6.1h48.9c3.4,0,6.1,2.7,6.1,6.1v26.7
				C287.6,78.2,284.8,80.9,281.5,80.9z"/>
		</g>
		<g>
			<path class="st4" d="M124.2,196.9v-19.5l18.8-5.6l11.8-30.6l23.5-2.8h21.2h16.5h18.8h23.5h28.2h21.2h28.2h14.1l9.4,6.9l11.8,9.7
				l9.4,12.5v19.5l4.7,15.3l21.2-13.9l11.8-13.9v-18.1v-18.1l-4.7-16.7l-16.5-19.5l-23.5-12.5l-35.3-12.5c0,0-25.9-9.7-28.2-11.1
				C307.5,64.9,277,58,277,58s-32.9-1.4-42.3,0c-9.4,1.4-30.6,6.9-30.6,6.9l-18.8,5.6l-21.2,8.3l-18.8,11.1c0,0-14.1,9.7-16.5,11.1
				c-2.4,1.4-14.1,13.9-14.1,13.9l-14.1,19.5l-7.1,22.2v8.3v13.9L103,190l16.5,12.5L124.2,196.9z"/>
		</g>
		<g>
			<path class="st4" d="M120.7,203.2v9.7v9.7v15.3l9.4,11.1l7.1,25l7.1,12.5l23.5,13.9l11.8-2.8l14.1-15.3l25.9-5.6l18.8-5.6
				l18.8,6.9c0,0,9.4,4.2,21.2,0l28.2-2.8l11.8,2.8l9.4,12.5v9.7l4.7,5.6L351,299l16.5-25l9.4-15.3l4.7-19.5l4.7-12.5v-18.1v-5.6
				v-8.8v-10.7l14.1-8.3l-7.1,50l-4.7,12.5l-2.4,16.7l-7.1,18.1c0,0-7.1,13.9-7.1,16.7c0,2.8-7.1,20.8-7.1,20.8l-9.4,16.7
				l-32.9,23.6c0,0-18.8,12.5-21.2,15.3c-2.4,2.8-16.5,19.5-16.5,19.5l-23.5,8.3l-4.7,6.9l-4.7,9.7c0,0,4.7,12.5-18.8,23.6l1.2,6.3
				h4.7l16.5,2.8l7.1,13.9L239.4,472h-23.5l-16.5-2.8l-2.4-13.9l4.7-6.9c0,0,2.4-5.6,4.7-5.6s7.1,0,7.1,0l4.7-11.1l-2.4-5.6
				l-2.4-9.7c0,0,0-1.4,2.4-2.8s11.8-6.9,11.8-6.9h9.4l2.4-9.7l-4.7-5.6L201.8,372l-32.9-23.6l-16.5-25l-25.9-19.5l-7.1-25
				l-7.1-41.7v-50L120.7,203.2z"/>
		</g>
		<g>
			<path d="M146.5,200.4l32.9-9.7c0,0,49.4,27.8,70.5,30.6c0,0-37.6,12.5-65.8,8.3S146.5,200.4,146.5,200.4z"/>
		</g>
		<g>
			<path d="M379.2,200.4l-32.9-9.7c0,0-49.4,27.8-70.5,30.6c0,0,37.6,12.5,65.8,8.3C369.8,225.4,379.2,200.4,379.2,200.4z"/>
		</g>
		<g>
			<path class="st5" d="M178.3,216.4c0,0,25.9-12.5,40,4.2C218.2,220.5,192.4,228.9,178.3,216.4z"/>
			<path d="M199.9,223.9c-7.7,0-16.3-1.6-22.6-7.2l-0.6-0.5l0.8-0.4c0.5-0.2,12.5-6,25-4.4c6.9,0.9,12.6,3.8,16.8,8.8l0.5,0.6
				l-1,0.3C218.6,221.2,210,223.9,199.9,223.9z M179.9,216.5c12,9.9,32,5.1,36.8,3.7c-3.8-4.2-8.7-6.7-14.6-7.4
				C192.4,211.6,182.8,215.3,179.9,216.5z"/>
		</g>
		<g>
			<path class="st5" d="M341.6,217.8c0,0-26.6-12.5-41.1,4.2C300.5,221.9,327.1,230.3,341.6,217.8z"/>
			<path d="M319.4,225.3c-10.4,0-19.3-2.7-19.4-2.8l-1-0.3l0.5-0.6c4.3-4.9,10-7.9,17.1-8.8c12.9-1.6,25.3,4.1,25.8,4.4l0.9,0.4
				l-0.6,0.5C336.1,223.7,327.3,225.3,319.4,225.3z M302.1,221.6c4.9,1.4,25.5,6.2,37.9-3.7c-3-1.2-13.1-5-23-3.7
				C311,215,306,217.5,302.1,221.6z"/>
		</g>
		<g>
			<ellipse cx="199.4" cy="215" rx="9.4" ry="5.6"/>
			<path d="M199.4,221.2c-5.8,0-10.6-2.8-10.6-6.3s4.7-6.3,10.6-6.3c5.8,0,10.6,2.8,10.6,6.3S205.2,221.2,199.4,221.2z M199.4,210.1
				c-4.5,0-8.2,2.2-8.2,4.9s3.7,4.9,8.2,4.9s8.2-2.2,8.2-4.9S203.9,210.1,199.4,210.1z"/>
		</g>
		<g>
			<ellipse cx="319.8" cy="216.4" rx="9.7" ry="5.6"/>
			<path d="M319.8,222.6c-6,0-10.9-2.8-10.9-6.3c0-3.4,4.9-6.3,10.9-6.3c6,0,10.9,2.8,10.9,6.3C330.7,219.8,325.8,222.6,319.8,222.6
				z M319.8,211.5c-4.7,0-8.5,2.2-8.5,4.9s3.8,4.9,8.5,4.9c4.7,0,8.5-2.2,8.5-4.9S324.5,211.5,319.8,211.5z"/>
		</g>
		<g>
			<path class="st1" d="M208.8,299.7c0,0,56.4,13.9,101.1,0c0,0,7.1,23.6-16.5,26.4c-23.5,2.8-21.2-12.5-21.2-12.5h-28.2
				c0,0,4.7,15.3-25.9,12.5C187.7,323.3,208.8,299.7,208.8,299.7z"/>
		</g>
		<g>
			<polygon class="st6" points="257.2,408.9 229.9,406.5 233.6,391.7 260.9,394.1 			"/>
		</g>
		<g>
			<polygon class="st6" points="236.1,443.7 208.7,441.3 212.4,426.4 239.8,428.8 			"/>
		</g>
	</g>
</g>
</svg>
