<?xml version="1.0" encoding="utf-8"?>
<!-- Generator: Adobe Illustrator 22.1.0, SVG Export Plug-In . SVG Version: 6.00 Build 0)  -->
<svg version="1.1" xmlns="http://www.w3.org/2000/svg" xmlns:xlink="http://www.w3.org/1999/xlink" x="0px" y="0px"
	 viewBox="0 0 500 500" style="enable-background:new 0 0 500 500;" xml:space="preserve">
<style type="text/css">
	.st0{fill:#E4AD7B;}
	.st1{fill:#E8E4E2;}
	.st2{opacity:0.21;fill:#757575;}
	.st3{fill:#0F0E0E;}
	.st4{fill:#FFFFFF;}
</style>
<g id="Layer_2">
	<g id="Layer_3">
	</g>
</g>
<g id="Layer_4">
	<g id="Layer_7">
	</g>
</g>
<g id="Layer_5">
</g>
<g id="Layer_6">
</g>
<g id="Layer_8">
</g>
<g id="Layer_9">
	<g>
		<polyline class="st0" points="146.6,313.6 177.2,371.3 266.9,404.5 345.5,388.5 372.5,359.1 386,306.3 379.8,273.1 381.1,228.9 
			381.1,155.3 325.8,91.4 247.2,86.5 161.3,101.2 120.8,187.2 113.7,254 122,280.5 131.8,298.9 146.6,313.6 		"/>
		<path class="st1" d="M166.8,272.5v-27l-8.6-11.1v-13.5l3.7-7.4v-14.7l-3.7-17.2v-11.1l-6.1-9.8l7.4-2.5c0,0,14.7,18.4,18.4,35.6
			s-8.6-46.7-19.6-49.1c-11.1-2.5,3.7-11.1,7.4-11.1c3.7,0,13.5,0,13.5,0s0,16-7.4,17.2c0,0,20.9-6.1,17.2-17.2l8.6-8.6l7.4-4.9v16
			l12.3-7.4l2.5-13.5h20.9l25.8,4.9l17.2,7.4l20.9-12.3l11.1,7.4l19.6,2.5l16,4.9c0,0,13.5,4.9,14.7,7.4c1.2,2.5,9.8,16,9.8,18.4
			s0,23.3,0,25.8s0,23.3,0,23.3l2.5,16v16l6.1,16l3.7-6.1v-25.8l-3.7-17.2l3.7-17.2v-14.7c0,0,6.1-12.3,4.9-14.7
			c-1.2-2.5-13.5-18.4-13.5-18.4l-11.1-23.3v-3.7l13.5-14.7L362,88.3l-6.1-4.9l1.2-6.1h-13.5l2.5-8.6c0,0-9.8-6.1-12.3-6.1
			s-11.1,0-11.1,0L308,56.4l-13.5-8.6h-22.1L250.3,38c0,0-8.6,3.7-11.1,3.7s-13.5,1.2-17.2,0s-17.2,0-17.2,0l-1.2,9.8
			c0,0-7.4,1.2-11.1,1.2s-16,1.2-16,1.2l-2.5,7.4c0,0-4.9,3.7-7.4,3.7c-2.5,0-14.7,6.1-14.7,6.1l-17.2,7.4l-13.5,8.6l-6.1,11.1
			c0,0-2.5,8.6-4.9,12.3s-6.1,9.8-6.1,9.8l-8.6,11.1c0,0-1.2,3.7,0,7.4s7.4,9.8,6.1,12.3s-4.9,12.3-6.1,14.7s0,20.9,0,20.9v13.5v8.6
			l4.9,7.4l1.2,14.7l2.5,3.7c0,0,2.5,8.6,0,9.8s3.7,8.6,3.7,8.6l3.7,9.8l8.6-35.6l11.1,14.7l16,4.9l14.7,25.8H166.8z"/>
		<path class="st2" d="M316.6,286c0,0,11.1-6.1,8.6-13.5s-16-16-18.4-35.6s0-38.7,0-38.7l45.4-3.1l22.1-27l7.4,90.9v41.7l-18.4-43
			v-16l-13.5-4.9h-9.8l-8.6,4.9l4.9,28.2v33.2h-29.5L316.6,286z"/>
		<polygon class="st3" points="190.8,211.7 203,201.9 217.8,195.8 227.6,195.8 253.4,200.7 266.9,204.4 266.9,206.8 228.8,209.3 		
			"/>
		<polygon class="st3" points="363.9,204.4 353.6,196.8 341.2,192.1 333,192.1 311.4,195.9 300,198.7 300,200.6 332,202.5 		"/>
		<path class="st4" d="M215.3,228.9c0,0,17.2-16,40.5-3.7C255.8,225.2,246,237.5,215.3,228.9z"/>
		<path class="st4" d="M312.3,222.8c0,0,17.2-16,40.5-3.7C352.8,219.1,343,231.4,312.3,222.8z"/>
		<g>
			<path d="M256.2,225.2c0.2,0.3-1.8,2.1-5.5,4.2c-1.9,1-4.2,2.1-6.9,3c-2.7,0.9-5.8,1.6-9,2.1c-3.3,0.4-6.4,0.5-9.2,0.3
				c-2.8-0.2-5.4-0.6-7.5-1.1c-4.2-1-6.5-2.3-6.4-2.6c0.1-0.4,2.7,0.1,6.8,0.5c2,0.2,4.5,0.4,7.2,0.4c2.7,0,5.7-0.1,8.8-0.5
				c3.1-0.4,6-1,8.6-1.7c2.6-0.7,4.9-1.5,6.8-2.2C253.6,225.9,255.9,224.8,256.2,225.2z"/>
		</g>
		<g>
			<path d="M313.3,223c0.2-0.4,2.7,0.4,6.8,1.1c0.5,0.1,1,0.2,1.6,0.3c0.6,0.1,1.1,0.1,1.8,0.2c1.2,0.2,2.5,0.2,3.9,0.2
				c2.7,0,5.7-0.1,8.9-0.5c6.3-0.8,11.9-2.4,16-3.6c4-1.2,6.6-2,6.8-1.6c0.2,0.4-2.1,1.9-6,3.6c-3.9,1.7-9.7,3.7-16.3,4.6
				c-3.3,0.4-6.5,0.5-9.4,0.3c-1.4-0.2-2.8-0.3-4.1-0.6c-0.6-0.1-1.2-0.2-1.8-0.4c-0.6-0.2-1.1-0.3-1.7-0.5
				C315.4,224.9,313.2,223.4,313.3,223z"/>
		</g>
		<g>
			<path d="M206.8,224.7c-0.2-0.8,13.5-4.5,30.6-8.2c4.3-0.9,8.3-1.8,12.1-2.5c3.7-0.7,7.2-1.2,10.1-1.4c5.9-0.4,9.4,0.8,9.4,1.1
				c-0.1,0.5-3.6,0.1-9.1,1c-2.8,0.4-6.1,1.1-9.7,2c-3.7,0.9-7.7,1.8-12,2.7C221,223.2,207,225.5,206.8,224.7z"/>
		</g>
		<g>
			<path d="M356,217c-0.2,0.8-11.2-0.6-24.7-3.2c-13.5-2.6-24.3-5.3-24.1-6.2c0.2-0.8,11.2,0.6,24.7,3.2
				C345.4,213.4,356.2,216.2,356,217z"/>
		</g>
		<path class="st1" d="M166.8,272.5l4.9,23.3l11.1,8.6l7.4,13.5l13.5,6.1l11.1,9.8h13.5l7.4-13.5l17.2-12.3l23.3-12.3l2.5-8.6
			l9.8-4.9c0,0,11.1,4.9,16,0l12.3,3.7v4.9h8.6h11.1l3.7,4.9l12.3,11.1v16l11.1,14.7h8.6l4.9-16v-17.2l-4.9-22.1l1.2-19.6l3.7-12.3
			l4.9-13.5l6.1,29.5l4.9,24.6v33.2l-3.7,13.5c0,0-3.7,18.4-6.1,22.1c-2.5,3.7-9.8,16-9.8,16l-13.5,31.9c0,0-1.2,9.8-3.7,12.3
			s-12.3,13.5-16,13.5c-3.7,0-14.7,4.9-14.7,4.9s-22.1,8.6-25.8,8.6c-3.7,0-38.1,4.9-44.2,2.5c-6.1-2.5-23.3-4.9-34.4-8.6
			c-11.1-3.7-30.7-16-30.7-16s-14.7-20.9-17.2-24.6s-6.1-11.1-6.1-11.1l-14.7-36.8l-3.7-13.5l-2.5-20.9v-6.1v-17.2l4.9-16l-4.9-31.9
			L166.8,272.5z"/>
		<circle cx="236.2" cy="226.5" r="7.4"/>
		<circle cx="333.2" cy="220.3" r="7.4"/>
		<polygon class="st0" points="257.1,343.1 332,332.1 344.2,346.8 332,361.5 317.2,346.8 297.6,346.8 285.3,361.5 262,361.5 		"/>
		<g>
			<path d="M260.8,328.7c-0.1-0.4,3.6-2.2,9.9-4.3c3.1-1.1,6.9-2.2,11.2-3.2c4.3-1,9-2,14-2.8c5-0.7,9.8-1.2,14.2-1.5
				c4.4-0.2,8.3-0.3,11.7-0.2c6.6,0.2,10.7,0.9,10.7,1.3c0,0.9-16.3,0.4-36.1,3.4C276.6,324.3,261.1,329.6,260.8,328.7z"/>
		</g>
		<g>
			<path d="M280.8,335.1c-0.1-0.9,9-2.4,20-4.5c11.1-2,20.1-3.7,20.3-2.8c0.2,0.8-8.6,3.8-19.8,5.9
				C290.2,335.7,280.9,335.9,280.8,335.1z"/>
		</g>
		<g>
			<path d="M125.4,269.4c0.9-0.1,2,4.8,5.4,9.8c3.2,5,7.3,8,6.8,8.8c-0.2,0.3-1.6,0-3.4-1.1c-1.9-1.1-4.2-3.2-6-6
				c-1.8-2.8-2.8-5.7-3.1-7.9C124.7,270.9,125,269.5,125.4,269.4z"/>
		</g>
		<g>
			<path d="M141.8,275.6c-0.1,0.2-0.5,0.3-1.4,0.1c-0.8-0.1-2-0.6-3.3-1.5c-1.3-0.9-2.5-2.3-3.5-4.2c-0.9-1.9-1.4-4.2-1-6.7
				c0.5-2.5,1.7-4.5,3.2-6c1.5-1.5,3.2-2.3,4.7-2.8c1.5-0.4,2.8-0.4,3.6-0.3c0.8,0.2,1.3,0.4,1.2,0.6c0,0.5-1.8,0.5-4,1.7
				c-1.1,0.6-2.4,1.5-3.4,2.7c-1.1,1.2-1.9,2.8-2.3,4.6c-0.3,1.8,0,3.5,0.6,5c0.6,1.5,1.4,2.8,2.3,3.7
				C140.3,274.5,142,275.1,141.8,275.6z"/>
		</g>
		<path class="st1" d="M347.9,420.5l19.6-9.8c0,0,17.2-11.1,18.4-13.5c1.2-2.5,13.5-27,13.5-35.6c0-8.6-7-41.9-6.6-43.7
			c0.5-1.8-40.1,73.1-40.1,73.1L347.9,420.5z"/>
	</g>
</g>
</svg>
