<?xml version="1.0" encoding="utf-8"?>
<!-- Generator: Adobe Illustrator 22.1.0, SVG Export Plug-In . SVG Version: 6.00 Build 0)  -->
<svg version="1.1" xmlns="http://www.w3.org/2000/svg" xmlns:xlink="http://www.w3.org/1999/xlink" x="0px" y="0px"
	 viewBox="0 0 2000 2000" style="enable-background:new 0 0 2000 2000;" xml:space="preserve">
<style type="text/css">
	.st0{fill:#757575;}
	.st1{clip-path:url(#SVGID_2_);fill:#FF512F;}
	.st2{clip-path:url(#SVGID_2_);fill:#FF532E;}
	.st3{clip-path:url(#SVGID_2_);fill:#FE562E;}
	.st4{clip-path:url(#SVGID_2_);fill:#FE582D;}
	.st5{clip-path:url(#SVGID_2_);fill:#FD5A2C;}
	.st6{clip-path:url(#SVGID_2_);fill:#FD5C2C;}
	.st7{clip-path:url(#SVGID_2_);fill:#FC5E2B;}
	.st8{clip-path:url(#SVGID_2_);fill:#FC602A;}
	.st9{clip-path:url(#SVGID_2_);fill:#FB632A;}
	.st10{clip-path:url(#SVGID_2_);fill:#FB6529;}
	.st11{clip-path:url(#SVGID_2_);fill:#FA6628;}
	.st12{clip-path:url(#SVGID_2_);fill:#FA6828;}
	.st13{clip-path:url(#SVGID_2_);fill:#FA6A27;}
	.st14{clip-path:url(#SVGID_2_);fill:#F96C27;}
	.st15{clip-path:url(#SVGID_2_);fill:#F96E26;}
	.st16{clip-path:url(#SVGID_2_);fill:#F97026;}
	.st17{clip-path:url(#SVGID_2_);fill:#F87125;}
	.st18{clip-path:url(#SVGID_2_);fill:#F87324;}
	.st19{clip-path:url(#SVGID_2_);fill:#F77524;}
	.st20{clip-path:url(#SVGID_2_);fill:#F77623;}
	.st21{clip-path:url(#SVGID_2_);fill:#F77823;}
	.st22{clip-path:url(#SVGID_2_);fill:#F77923;}
	.st23{clip-path:url(#SVGID_2_);fill:#F67B22;}
	.st24{clip-path:url(#SVGID_2_);fill:#F67C22;}
	.st25{clip-path:url(#SVGID_2_);fill:#F67D21;}
	.st26{clip-path:url(#SVGID_2_);fill:#F57F21;}
	.st27{clip-path:url(#SVGID_2_);fill:#F58020;}
	.st28{clip-path:url(#SVGID_2_);fill:#F58120;}
	.st29{clip-path:url(#SVGID_2_);fill:#F58220;}
	.st30{clip-path:url(#SVGID_2_);fill:#F4841F;}
	.st31{clip-path:url(#SVGID_2_);fill:#F4851F;}
	.st32{clip-path:url(#SVGID_2_);fill:#F4861F;}
	.st33{clip-path:url(#SVGID_2_);fill:#F4871E;}
	.st34{clip-path:url(#SVGID_2_);fill:#F3881E;}
	.st35{clip-path:url(#SVGID_2_);fill:#F3891E;}
	.st36{clip-path:url(#SVGID_2_);fill:#F38A1D;}
	.st37{clip-path:url(#SVGID_2_);fill:#F38B1D;}
	.st38{clip-path:url(#SVGID_2_);fill:#F38C1D;}
	.st39{clip-path:url(#SVGID_2_);fill:#F28D1D;}
	.st40{clip-path:url(#SVGID_2_);fill:#F28D1C;}
	.st41{clip-path:url(#SVGID_2_);fill:#F28E1C;}
	.st42{clip-path:url(#SVGID_2_);fill:#F28F1C;}
	.st43{clip-path:url(#SVGID_2_);fill:#F2901C;}
	.st44{clip-path:url(#SVGID_2_);fill:#F2901B;}
	.st45{clip-path:url(#SVGID_2_);fill:#F1911B;}
	.st46{clip-path:url(#SVGID_2_);fill:#F1921B;}
	.st47{clip-path:url(#SVGID_2_);fill:#F1931B;}
	.st48{clip-path:url(#SVGID_2_);fill:#F1931A;}
	.st49{clip-path:url(#SVGID_2_);fill:#F1941A;}
	.st50{clip-path:url(#SVGID_2_);fill:#F1951A;}
	.st51{clip-path:url(#SVGID_2_);fill:#F0961A;}
	.st52{clip-path:url(#SVGID_2_);fill:#F09719;}
	.st53{clip-path:url(#SVGID_2_);fill:#F09819;}
	.st54{clip-path:url(#SVGID_4_);fill:#FF512F;}
	.st55{clip-path:url(#SVGID_4_);fill:#FF532E;}
	.st56{clip-path:url(#SVGID_4_);fill:#FE562E;}
	.st57{clip-path:url(#SVGID_4_);fill:#FE582D;}
	.st58{clip-path:url(#SVGID_4_);fill:#FD5A2C;}
	.st59{clip-path:url(#SVGID_4_);fill:#FD5C2C;}
	.st60{clip-path:url(#SVGID_4_);fill:#FC5E2B;}
	.st61{clip-path:url(#SVGID_4_);fill:#FC602A;}
	.st62{clip-path:url(#SVGID_4_);fill:#FB632A;}
	.st63{clip-path:url(#SVGID_4_);fill:#FB6529;}
	.st64{clip-path:url(#SVGID_4_);fill:#FA6628;}
	.st65{clip-path:url(#SVGID_4_);fill:#FA6828;}
	.st66{clip-path:url(#SVGID_4_);fill:#FA6A27;}
	.st67{clip-path:url(#SVGID_4_);fill:#F96C27;}
	.st68{clip-path:url(#SVGID_4_);fill:#F96E26;}
	.st69{clip-path:url(#SVGID_4_);fill:#F97026;}
	.st70{clip-path:url(#SVGID_4_);fill:#F87125;}
	.st71{clip-path:url(#SVGID_4_);fill:#F87324;}
	.st72{clip-path:url(#SVGID_4_);fill:#F77524;}
	.st73{clip-path:url(#SVGID_4_);fill:#F77623;}
	.st74{clip-path:url(#SVGID_4_);fill:#F77823;}
	.st75{clip-path:url(#SVGID_4_);fill:#F77923;}
	.st76{clip-path:url(#SVGID_4_);fill:#F67B22;}
	.st77{clip-path:url(#SVGID_4_);fill:#F67C22;}
	.st78{clip-path:url(#SVGID_4_);fill:#F67D21;}
	.st79{clip-path:url(#SVGID_4_);fill:#F57F21;}
	.st80{clip-path:url(#SVGID_4_);fill:#F58020;}
	.st81{clip-path:url(#SVGID_4_);fill:#F58120;}
	.st82{clip-path:url(#SVGID_4_);fill:#F58220;}
	.st83{clip-path:url(#SVGID_4_);fill:#F4841F;}
	.st84{clip-path:url(#SVGID_4_);fill:#F4851F;}
	.st85{clip-path:url(#SVGID_4_);fill:#F4861F;}
	.st86{clip-path:url(#SVGID_4_);fill:#F4871E;}
	.st87{clip-path:url(#SVGID_4_);fill:#F3881E;}
	.st88{clip-path:url(#SVGID_4_);fill:#F3891E;}
	.st89{clip-path:url(#SVGID_4_);fill:#F38A1D;}
	.st90{clip-path:url(#SVGID_4_);fill:#F38B1D;}
	.st91{clip-path:url(#SVGID_4_);fill:#F38C1D;}
	.st92{clip-path:url(#SVGID_4_);fill:#F28D1D;}
	.st93{clip-path:url(#SVGID_4_);fill:#F28D1C;}
	.st94{clip-path:url(#SVGID_4_);fill:#F28E1C;}
	.st95{clip-path:url(#SVGID_4_);fill:#F28F1C;}
	.st96{clip-path:url(#SVGID_4_);fill:#F2901C;}
	.st97{clip-path:url(#SVGID_4_);fill:#F2901B;}
	.st98{clip-path:url(#SVGID_4_);fill:#F1911B;}
	.st99{clip-path:url(#SVGID_4_);fill:#F1921B;}
	.st100{clip-path:url(#SVGID_4_);fill:#F1931B;}
	.st101{clip-path:url(#SVGID_4_);fill:#F1931A;}
	.st102{clip-path:url(#SVGID_4_);fill:#F1941A;}
	.st103{clip-path:url(#SVGID_4_);fill:#F1951A;}
	.st104{clip-path:url(#SVGID_4_);fill:#F0961A;}
	.st105{clip-path:url(#SVGID_4_);fill:#F09719;}
	.st106{clip-path:url(#SVGID_4_);fill:#F09819;}
</style>
<g id="Layer_2">
</g>
<g id="Layer_4">
	<path class="st0" d="M663.1,1457.8"/>
	<g>
		<g>
			<g>
				<defs>
					<path id="SVGID_1_" d="M135.6,1857c0,0,25.1-128.7,188.6-275L1353.9,567.4c0,0,41.6-1.3,43.5-42.8c0,0-49.1-65.6-68.9-85.7
						c-19.8-20.1-74.3-55.6-74.3-55.6l-5-24.8l29.6-29.2c0,0,55,79.5,73.3,86.3c0,0,37.1,37.7,86.2,63.7l2.5,2.5l328.1-323.3
						l91.6,93l-324.1,319.4l-2,1.9c0,0,32.2,72.3,148.6,150.8l4,15.9l-21.7,21.4l-17.3,2.2c0,0-24.3-60.3-137.7-131.8l-12.9-17
						c0,0-47-8.2-47.4,46.7L386.7,1708.6C386.7,1708.6,251.8,1836.6,135.6,1857z"/>
				</defs>
				<clipPath id="SVGID_2_">
					<use xlink:href="#SVGID_1_"  style="overflow:visible;"/>
				</clipPath>
				<rect x="135.6" y="158.5" class="st1" width="1724.9" height="1698.5"/>
				<circle class="st1" cx="998.1" cy="1007.7" r="855.9"/>
				<circle class="st2" cx="998.1" cy="1007.7" r="843.8"/>
				<circle class="st3" cx="998.1" cy="1007.7" r="831.8"/>
				<circle class="st4" cx="998.1" cy="1007.7" r="819.7"/>
				<circle class="st5" cx="998.1" cy="1007.7" r="807.7"/>
				<circle class="st6" cx="998.1" cy="1007.7" r="795.6"/>
				<circle class="st7" cx="998.1" cy="1007.7" r="783.5"/>
				<circle class="st8" cx="998.1" cy="1007.7" r="771.5"/>
				<circle class="st9" cx="998.1" cy="1007.7" r="759.4"/>
				<circle class="st10" cx="998.1" cy="1007.7" r="747.4"/>
				<circle class="st11" cx="998.1" cy="1007.7" r="735.3"/>
				<circle class="st12" cx="998.1" cy="1007.7" r="723.3"/>
				<circle class="st13" cx="998.1" cy="1007.7" r="711.2"/>
				<circle class="st14" cx="998.1" cy="1007.7" r="699.2"/>
				<circle class="st15" cx="998.1" cy="1007.7" r="687.1"/>
				<circle class="st16" cx="998.1" cy="1007.7" r="675.1"/>
				<circle class="st17" cx="998.1" cy="1007.7" r="663"/>
				<circle class="st18" cx="998.1" cy="1007.7" r="650.9"/>
				<circle class="st19" cx="998.1" cy="1007.7" r="638.9"/>
				<circle class="st20" cx="998.1" cy="1007.7" r="626.8"/>
				<circle class="st21" cx="998.1" cy="1007.7" r="614.8"/>
				<circle class="st22" cx="998.1" cy="1007.7" r="602.7"/>
				<circle class="st23" cx="998.1" cy="1007.7" r="590.7"/>
				<circle class="st24" cx="998.1" cy="1007.7" r="578.6"/>
				<circle class="st25" cx="998.1" cy="1007.7" r="566.6"/>
				<circle class="st26" cx="998.1" cy="1007.7" r="554.5"/>
				<circle class="st27" cx="998.1" cy="1007.7" r="542.5"/>
				<circle class="st28" cx="998.1" cy="1007.7" r="530.4"/>
				<circle class="st29" cx="998.1" cy="1007.7" r="518.3"/>
				<circle class="st30" cx="998.1" cy="1007.7" r="506.3"/>
				<circle class="st31" cx="998.1" cy="1007.7" r="494.2"/>
				<circle class="st32" cx="998.1" cy="1007.7" r="482.2"/>
				<circle class="st33" cx="998.1" cy="1007.7" r="470.1"/>
				<circle class="st34" cx="998.1" cy="1007.7" r="458.1"/>
				<circle class="st35" cx="998.1" cy="1007.7" r="446"/>
				<circle class="st36" cx="998.1" cy="1007.7" r="434"/>
				<circle class="st37" cx="998.1" cy="1007.7" r="421.9"/>
				<circle class="st38" cx="998.1" cy="1007.7" r="409.9"/>
				<circle class="st39" cx="998.1" cy="1007.7" r="397.8"/>
				<circle class="st40" cx="998.1" cy="1007.7" r="385.7"/>
				<circle class="st41" cx="998.1" cy="1007.7" r="373.7"/>
				<circle class="st42" cx="998.1" cy="1007.7" r="361.6"/>
				<circle class="st43" cx="998.1" cy="1007.7" r="349.6"/>
				<circle class="st44" cx="998.1" cy="1007.7" r="337.5"/>
				<circle class="st45" cx="998.1" cy="1007.7" r="325.5"/>
				<circle class="st46" cx="998.1" cy="1007.7" r="313.4"/>
				<circle class="st46" cx="998.1" cy="1007.7" r="301.4"/>
				<circle class="st47" cx="998.1" cy="1007.7" r="289.3"/>
				<circle class="st48" cx="998.1" cy="1007.7" r="277.3"/>
				<circle class="st49" cx="998.1" cy="1007.7" r="265.2"/>
				<circle class="st49" cx="998.1" cy="1007.7" r="253.1"/>
				<circle class="st50" cx="998.1" cy="1007.7" r="241.1"/>
				<circle class="st50" cx="998.1" cy="1007.7" r="229"/>
				<circle class="st50" cx="998.1" cy="1007.7" r="217"/>
				<circle class="st51" cx="998.1" cy="1007.7" r="204.9"/>
				<circle class="st51" cx="998.1" cy="1007.7" r="192.9"/>
				<circle class="st51" cx="998.1" cy="1007.7" r="180.8"/>
				<circle class="st52" cx="998.1" cy="1007.7" r="168.8"/>
				<circle class="st52" cx="998.1" cy="1007.7" r="156.7"/>
				<circle class="st52" cx="998.1" cy="1007.7" r="144.7"/>
				<circle class="st52" cx="998.1" cy="1007.7" r="132.6"/>
				<circle class="st52" cx="998.1" cy="1007.7" r="120.5"/>
				<circle class="st53" cx="998.1" cy="1007.7" r="108.5"/>
				<circle class="st53" cx="998.1" cy="1007.7" r="96.4"/>
				<circle class="st53" cx="998.1" cy="1007.7" r="84.4"/>
				<circle class="st53" cx="998.1" cy="1007.7" r="72.3"/>
				<circle class="st53" cx="998.1" cy="1007.7" r="60.3"/>
				<circle class="st53" cx="998.1" cy="1007.7" r="48.2"/>
				<circle class="st53" cx="998.1" cy="1007.7" r="36.2"/>
				<circle class="st53" cx="998.1" cy="1007.7" r="24.1"/>
				<circle class="st53" cx="998.1" cy="1007.7" r="12.1"/>
			</g>
		</g>
	</g>
	<g>
		<g>
			<g>
				<defs>
					<path id="SVGID_3_" d="M1860.3,1857.2c0,0-128.7-25.1-275-188.6L570.7,638.9c0,0-1.3-41.6-42.8-43.5c0,0-65.6,49.1-85.7,68.9
						c-20.1,19.8-55.6,74.3-55.6,74.3l-24.8,5l-29.2-29.6c0,0,79.5-55,86.3-73.3c0,0,37.7-37.1,63.7-86.2l2.5-2.5L161.8,223.9
						l93-91.6l319.4,324.1l1.9,2c0,0,72.3-32.2,150.8-148.6l15.9-4l21.4,21.7l2.2,17.3c0,0-60.3,24.3-131.8,137.7l-17,12.9
						c0,0-8.2,47,46.7,47.4L1712,1606.1C1712,1606.1,1839.9,1741,1860.3,1857.2z"/>
				</defs>
				<clipPath id="SVGID_4_">
					<use xlink:href="#SVGID_3_"  style="overflow:visible;"/>
				</clipPath>
				<rect x="161.8" y="132.3" class="st54" width="1698.5" height="1724.9"/>
				<circle class="st54" cx="1011.1" cy="994.7" r="855.9"/>
				<circle class="st55" cx="1011.1" cy="994.7" r="843.8"/>
				<circle class="st56" cx="1011.1" cy="994.7" r="831.8"/>
				<circle class="st57" cx="1011.1" cy="994.7" r="819.7"/>
				<circle class="st58" cx="1011.1" cy="994.7" r="807.7"/>
				<circle class="st59" cx="1011.1" cy="994.7" r="795.6"/>
				<circle class="st60" cx="1011.1" cy="994.7" r="783.5"/>
				<circle class="st61" cx="1011.1" cy="994.7" r="771.5"/>
				<circle class="st62" cx="1011.1" cy="994.7" r="759.4"/>
				<circle class="st63" cx="1011.1" cy="994.7" r="747.4"/>
				<circle class="st64" cx="1011.1" cy="994.7" r="735.3"/>
				<circle class="st65" cx="1011.1" cy="994.7" r="723.3"/>
				<circle class="st66" cx="1011.1" cy="994.7" r="711.2"/>
				<circle class="st67" cx="1011.1" cy="994.7" r="699.2"/>
				<circle class="st68" cx="1011.1" cy="994.7" r="687.1"/>
				<circle class="st69" cx="1011.1" cy="994.7" r="675.1"/>
				<circle class="st70" cx="1011.1" cy="994.7" r="663"/>
				<circle class="st71" cx="1011.1" cy="994.7" r="650.9"/>
				<circle class="st72" cx="1011.1" cy="994.7" r="638.9"/>
				<circle class="st73" cx="1011.1" cy="994.7" r="626.8"/>
				<circle class="st74" cx="1011.1" cy="994.7" r="614.8"/>
				<circle class="st75" cx="1011.1" cy="994.7" r="602.7"/>
				<circle class="st76" cx="1011.1" cy="994.7" r="590.7"/>
				<circle class="st77" cx="1011.1" cy="994.7" r="578.6"/>
				<circle class="st78" cx="1011.1" cy="994.7" r="566.6"/>
				<circle class="st79" cx="1011.1" cy="994.7" r="554.5"/>
				<circle class="st80" cx="1011.1" cy="994.7" r="542.5"/>
				<circle class="st81" cx="1011.1" cy="994.7" r="530.4"/>
				<circle class="st82" cx="1011.1" cy="994.7" r="518.3"/>
				<circle class="st83" cx="1011.1" cy="994.7" r="506.3"/>
				<circle class="st84" cx="1011.1" cy="994.7" r="494.2"/>
				<circle class="st85" cx="1011.1" cy="994.7" r="482.2"/>
				<circle class="st86" cx="1011.1" cy="994.7" r="470.1"/>
				<circle class="st87" cx="1011.1" cy="994.7" r="458.1"/>
				<circle class="st88" cx="1011.1" cy="994.7" r="446"/>
				<circle class="st89" cx="1011.1" cy="994.7" r="434"/>
				<circle class="st90" cx="1011.1" cy="994.7" r="421.9"/>
				<circle class="st91" cx="1011.1" cy="994.7" r="409.9"/>
				<circle class="st92" cx="1011.1" cy="994.7" r="397.8"/>
				<circle class="st93" cx="1011.1" cy="994.7" r="385.7"/>
				<circle class="st94" cx="1011.1" cy="994.7" r="373.7"/>
				<circle class="st95" cx="1011.1" cy="994.7" r="361.6"/>
				<circle class="st96" cx="1011.1" cy="994.7" r="349.6"/>
				<circle class="st97" cx="1011.1" cy="994.7" r="337.5"/>
				<circle class="st98" cx="1011.1" cy="994.7" r="325.5"/>
				<circle class="st99" cx="1011.1" cy="994.7" r="313.4"/>
				<circle class="st99" cx="1011.1" cy="994.7" r="301.4"/>
				<circle class="st100" cx="1011.1" cy="994.7" r="289.3"/>
				<circle class="st101" cx="1011.1" cy="994.7" r="277.3"/>
				<circle class="st102" cx="1011.1" cy="994.7" r="265.2"/>
				<circle class="st102" cx="1011.1" cy="994.7" r="253.1"/>
				<circle class="st103" cx="1011.1" cy="994.7" r="241.1"/>
				<circle class="st103" cx="1011.1" cy="994.7" r="229"/>
				<circle class="st103" cx="1011.1" cy="994.7" r="217"/>
				<circle class="st104" cx="1011.1" cy="994.7" r="204.9"/>
				<circle class="st104" cx="1011.1" cy="994.7" r="192.9"/>
				<circle class="st104" cx="1011.1" cy="994.7" r="180.8"/>
				<circle class="st105" cx="1011.1" cy="994.7" r="168.8"/>
				<circle class="st105" cx="1011.1" cy="994.7" r="156.7"/>
				<circle class="st105" cx="1011.1" cy="994.7" r="144.7"/>
				<circle class="st105" cx="1011.1" cy="994.7" r="132.6"/>
				<circle class="st105" cx="1011.1" cy="994.7" r="120.5"/>
				<circle class="st106" cx="1011.1" cy="994.7" r="108.5"/>
				<circle class="st106" cx="1011.1" cy="994.7" r="96.4"/>
				<circle class="st106" cx="1011.1" cy="994.7" r="84.4"/>
				<circle class="st106" cx="1011.1" cy="994.7" r="72.3"/>
				<circle class="st106" cx="1011.1" cy="994.7" r="60.3"/>
				<circle class="st106" cx="1011.1" cy="994.7" r="48.2"/>
				<circle class="st106" cx="1011.1" cy="994.7" r="36.2"/>
				<circle class="st106" cx="1011.1" cy="994.7" r="24.1"/>
				<circle class="st106" cx="1011.1" cy="994.7" r="12.1"/>
			</g>
		</g>
	</g>
</g>
</svg>
