<?xml version="1.0" encoding="utf-8"?>
<!-- Generator: Adobe Illustrator 22.1.0, SVG Export Plug-In . SVG Version: 6.00 Build 0)  -->
<svg version="1.1" xmlns="http://www.w3.org/2000/svg" xmlns:xlink="http://www.w3.org/1999/xlink" x="0px" y="0px"
	 viewBox="0 0 2000 2000" style="enable-background:new 0 0 2000 2000;" xml:space="preserve">
<style type="text/css">
	.st0{fill:#FFFFFF;}
	.st1{fill:#757575;}
</style>
<g id="Layer_2">
</g>
<g id="Layer_4">
	<g>
		<rect x="660.6" y="1315.4" class="st0" width="677.8" height="600.1"/>
		<path class="st0" d="M1339,1916H660.1v-601.1H1339V1916z M661.2,1915.1h676.8v-599.2H661.2V1915.1z"/>
	</g>
	<path class="st1" d="M663.1,1457.8"/>
	<polygon class="st0" points="615.2,1316 361,278 549.4,531 468.8,162 699.2,465 633.4,72 858.1,476 834.3,46 1000,513 1000,1316 	
		"/>
	<polygon class="st0" points="1377.5,1316 1627,278 1442.1,531 1521.2,162 1295.1,465 1359.7,72 1139.2,476 1162.6,46 1000,513 
		1000,1316 	"/>
	<polygon class="st0" points="544,1526 491,1916 1339,1915 1510,1916 1449,1526 	"/>
	<g>
		<polygon points="768,1271 667.1,1526 547,1526 605,1271 		"/>
		<polygon points="1231,1271 1331.9,1526 1452,1526 1394,1271 		"/>
		<polygon points="547,1526 540.2,1576.3 667.1,1576.3 667.1,1526 		"/>
		<polygon points="1454.2,1526 1461,1576.3 1334.1,1576.3 1334.1,1526 		"/>
		<g>
			<path d="M560.1,1887.2c0,0-4-18.3,11.2-42.8l90.2-167.3c0,0,6-1.3,3.8-7.1c0,0-11.1-7.6-15.2-9.8s-14.2-5.6-14.2-5.6l-2.2-3.3
				l2.6-4.8c0,0,12.8,9.4,15.9,9.8c0,0,7.7,4.1,16.4,6.4l0.5,0.3l28.7-53.3l18.9,10.2l-28.4,52.6l-0.2,0.3c0,0,9,9,30.7,16.6
				l1.5,2.1l-1.9,3.5l-2.4,0.8c0,0-7.1-7.6-28-14.3l-2.9-2c0,0-7.4,0.2-4.2,7.7L588,1860C588,1860,575.8,1881.2,560.1,1887.2z"/>
		</g>
		<g>
			<path d="M1451.4,1881.7c0,0-18-5.4-32.1-30.5l-102.9-159.8c0,0,1.7-5.9-4.3-6.7c0,0-12,6-15.9,8.5c-3.9,2.5-11.7,9.7-11.7,9.7
				l-3.9,0.4l-3-4.6c0,0,14.4-6.7,16.2-9.1c0,0,7.3-4.7,13.5-11.3l0.5-0.3L1275,1627l18.1-11.6l32.4,50.3l0.2,0.3
				c0,0,12.2-3.5,29.3-18.9l2.5-0.3l2.2,3.4l-0.5,2.5c0,0-10.1,2.6-26,17.6l-3.1,1.6c0,0-3.4,6.5,4.7,7.4l106.2,165
				C1441,1844.2,1453.8,1865,1451.4,1881.7z"/>
		</g>
		<g>
			<path d="M1333.4,1887.7c0,0-18-5.4-32.1-30.5l-102.9-159.8c0,0,1.7-5.9-4.3-6.7c0,0-12,6-15.9,8.5c-3.9,2.5-11.7,9.7-11.7,9.7
				l-3.9,0.4l-3-4.6c0,0,14.4-6.7,16.2-9.1c0,0,7.3-4.7,13.5-11.3l0.5-0.3L1157,1633l18.1-11.6l32.4,50.3l0.2,0.3
				c0,0,12.2-3.5,29.3-18.9l2.5-0.3l2.2,3.4l-0.5,2.5c0,0-10.1,2.6-26,17.6l-3.1,1.6c0,0-3.4,6.5,4.7,7.4l106.2,165
				C1323,1850.2,1335.8,1871,1333.4,1887.7z"/>
		</g>
		<g>
			<path d="M697.1,1893.2c0,0-4-18.3,11.2-42.8l90.2-167.3c0,0,6-1.3,3.8-7.1c0,0-11.1-7.6-15.2-9.8s-14.2-5.6-14.2-5.6l-2.2-3.3
				l2.6-4.8c0,0,12.8,9.4,15.9,9.8c0,0,7.7,4.1,16.4,6.4l0.5,0.3l28.7-53.3l18.9,10.2l-28.4,52.6l-0.2,0.3c0,0,9,9,30.7,16.6
				l1.5,2.1l-1.9,3.5l-2.4,0.8c0,0-7.1-7.6-28-14.3l-2.9-2c0,0-7.4,0.2-4.2,7.7L725,1866C725,1866,712.8,1887.2,697.1,1893.2z"/>
		</g>
		<g>
			<path d="M1012.7,53.1c0,0,30.6,57.9,25.3,174.8l-5.7,770.8c0,0-12,16.2-0.2,32.5c0,0,34,6.2,45.8,6.3c11.8,0.1,38.5-7.1,38.5-7.1
				l8.8,7.5l-0.2,22.2c0,0-39.9-9.2-47.3-4.8c0,0-22.2-0.2-44.4,8.5l-1.5,0l-1.8,245.6l-54.7-0.4l1.8-242.6l0-1.5
				c0,0-31-15-88.8-0.7l-5.9-4.5l0.1-16.3l4.5-7.4c0,0,25.1,13.5,79.9-2.4l8.9,1.5c0,0,16.4-14.7,0.3-35.5l5.9-796
				C982,203.8,984.2,104.7,1012.7,53.1z"/>
		</g>
		<g>
			<path d="M1703,350.4c0,0-19.3,62.6-105.7,141.5l-549.1,541c0,0-19.9,3-23.2,22.8c0,0,19.7,28.4,28,36.8s32.3,22.2,32.3,22.2
				l1,11.5l-15.8,15.6c0,0-21.7-34.7-30.1-36.8c0,0-15.6-15.8-37.5-25.4l-1-1.1L827,1251l-38.4-39l172.8-170.3l1.1-1
				c0,0-11.3-32.5-62.3-63.2l-1-7.3l11.6-11.4l8.4-2c0,0,8.2,27.3,58.2,54.8l5.2,7.4c0,0,22,1.2,25.3-24.9l567-558.7
				C1574.7,435.2,1646.4,366.7,1703,350.4z"/>
		</g>
		<g>
			<path d="M297.9,343.7c0,0,62.6,19.3,141.5,105.7l541,549.1c0,0,3,19.9,22.8,23.2c0,0,28.4-19.7,36.8-28s22.2-32.3,22.2-32.3
				l11.5-1l15.6,15.8c0,0-34.7,21.7-36.8,30.1c0,0-15.8,15.6-25.4,37.5l-1.1,1l172.4,174.9l-39,38.4l-170.3-172.8l-1-1.1
				c0,0-32.5,11.3-63.2,62.3l-7.3,1l-11.4-11.6l-2-8.4c0,0,27.3-8.2,54.8-58.2l7.4-5.2c0,0,1.2-22-24.9-25.3L382.7,472
				C382.7,472,314.2,400.3,297.9,343.7z"/>
		</g>
	</g>
</g>
</svg>
