<?xml version="1.0" encoding="utf-8"?>
<!-- Generator: Adobe Illustrator 22.1.0, SVG Export Plug-In . SVG Version: 6.00 Build 0)  -->
<svg version="1.1" xmlns="http://www.w3.org/2000/svg" xmlns:xlink="http://www.w3.org/1999/xlink" x="0px" y="0px"
	 viewBox="0 0 2000 2000" style="enable-background:new 0 0 2000 2000;" xml:space="preserve">
<style type="text/css">
	.st0{fill:#757575;}
	.st1{fill:url(#SVGID_1_);}
	.st2{fill:url(#SVGID_2_);}
	.st3{fill:url(#SVGID_3_);}
	.st4{fill:url(#SVGID_4_);}
	.st5{fill:url(#SVGID_5_);}
	.st6{fill:url(#SVGID_6_);}
	.st7{fill:url(#SVGID_7_);}
	.st8{fill:url(#SVGID_8_);}
	.st9{fill:url(#SVGID_9_);}
	.st10{fill:#FFFFFF;}
</style>
<g id="Layer_2">
</g>
<g id="Layer_4">
	<path class="st0" d="M663.1,1457.8"/>
	<g>
		<g>
			<radialGradient id="SVGID_1_" cx="999.5482" cy="1615.4574" r="320.0863" gradientUnits="userSpaceOnUse">
				<stop  offset="0" style="stop-color:#F09819"/>
				<stop  offset="0.2689" style="stop-color:#F1951A"/>
				<stop  offset="0.4927" style="stop-color:#F38A1D"/>
				<stop  offset="0.7005" style="stop-color:#F77923"/>
				<stop  offset="0.8972" style="stop-color:#FC612A"/>
				<stop  offset="1" style="stop-color:#FF512F"/>
			</radialGradient>
			<rect x="660.6" y="1315.4" class="st1" width="677.8" height="600.1"/>
			<radialGradient id="SVGID_2_" cx="999.5482" cy="1615.4574" r="320.588" gradientUnits="userSpaceOnUse">
				<stop  offset="0" style="stop-color:#F09819"/>
				<stop  offset="0.2689" style="stop-color:#F1951A"/>
				<stop  offset="0.4927" style="stop-color:#F38A1D"/>
				<stop  offset="0.7005" style="stop-color:#F77923"/>
				<stop  offset="0.8972" style="stop-color:#FC612A"/>
				<stop  offset="1" style="stop-color:#FF512F"/>
			</radialGradient>
			<path class="st2" d="M1339,1916H660.1v-601.1H1339V1916z M661.2,1915.1h676.8v-599.2H661.2V1915.1z"/>
		</g>
		<radialGradient id="SVGID_3_" cx="680.5" cy="681" r="502.6456" gradientUnits="userSpaceOnUse">
			<stop  offset="0" style="stop-color:#F09819"/>
			<stop  offset="0.2689" style="stop-color:#F1951A"/>
			<stop  offset="0.4927" style="stop-color:#F38A1D"/>
			<stop  offset="0.7005" style="stop-color:#F77923"/>
			<stop  offset="0.8972" style="stop-color:#FC612A"/>
			<stop  offset="1" style="stop-color:#FF512F"/>
		</radialGradient>
		<polygon class="st3" points="615.2,1316 361,278 549.4,531 468.8,162 699.2,465 633.4,72 858.1,476 834.3,46 1000,513 1000,1316 
					"/>
		<radialGradient id="SVGID_4_" cx="1313.5" cy="681" r="500.7531" gradientUnits="userSpaceOnUse">
			<stop  offset="0" style="stop-color:#F09819"/>
			<stop  offset="0.2689" style="stop-color:#F1951A"/>
			<stop  offset="0.4927" style="stop-color:#F38A1D"/>
			<stop  offset="0.7005" style="stop-color:#F77923"/>
			<stop  offset="0.8972" style="stop-color:#FC612A"/>
			<stop  offset="1" style="stop-color:#FF512F"/>
		</radialGradient>
		<polygon class="st4" points="1377.5,1316 1627,278 1442.1,531 1521.2,162 1295.1,465 1359.7,72 1139.2,476 1162.6,46 1000,513 
			1000,1316 		"/>
		<radialGradient id="SVGID_5_" cx="1000.5" cy="1721" r="385.7559" gradientUnits="userSpaceOnUse">
			<stop  offset="0" style="stop-color:#F09819"/>
			<stop  offset="0.2689" style="stop-color:#F1951A"/>
			<stop  offset="0.4927" style="stop-color:#F38A1D"/>
			<stop  offset="0.7005" style="stop-color:#F77923"/>
			<stop  offset="0.8972" style="stop-color:#FC612A"/>
			<stop  offset="1" style="stop-color:#FF512F"/>
		</radialGradient>
		<polygon class="st5" points="544,1526 491,1916 1339,1915 1510,1916 1449,1526 		"/>
		<radialGradient id="SVGID_6_" cx="657.5" cy="1398.476" r="119.2904" gradientUnits="userSpaceOnUse">
			<stop  offset="0" style="stop-color:#F09819"/>
			<stop  offset="0.2689" style="stop-color:#F1951A"/>
			<stop  offset="0.4927" style="stop-color:#F38A1D"/>
			<stop  offset="0.7005" style="stop-color:#F77923"/>
			<stop  offset="0.8972" style="stop-color:#FC612A"/>
			<stop  offset="1" style="stop-color:#FF512F"/>
		</radialGradient>
		<polygon class="st6" points="768,1271 667.1,1526 547,1526 605,1271 		"/>
		<radialGradient id="SVGID_7_" cx="1341.5" cy="1398.476" r="119.2904" gradientUnits="userSpaceOnUse">
			<stop  offset="0" style="stop-color:#F09819"/>
			<stop  offset="0.2689" style="stop-color:#F1951A"/>
			<stop  offset="0.4927" style="stop-color:#F38A1D"/>
			<stop  offset="0.7005" style="stop-color:#F77923"/>
			<stop  offset="0.8972" style="stop-color:#FC612A"/>
			<stop  offset="1" style="stop-color:#FF512F"/>
		</radialGradient>
		<polygon class="st7" points="1231,1271 1331.9,1526 1452,1526 1394,1271 		"/>
		<radialGradient id="SVGID_8_" cx="603.6329" cy="1551.1077" r="48.2723" gradientUnits="userSpaceOnUse">
			<stop  offset="0" style="stop-color:#F09819"/>
			<stop  offset="0.2689" style="stop-color:#F1951A"/>
			<stop  offset="0.4927" style="stop-color:#F38A1D"/>
			<stop  offset="0.7005" style="stop-color:#F77923"/>
			<stop  offset="0.8972" style="stop-color:#FC612A"/>
			<stop  offset="1" style="stop-color:#FF512F"/>
		</radialGradient>
		<polygon class="st8" points="547,1526 540.2,1576.3 667.1,1576.3 667.1,1526 		"/>
		<radialGradient id="SVGID_9_" cx="1397.5482" cy="1551.1077" r="48.2645" gradientUnits="userSpaceOnUse">
			<stop  offset="0" style="stop-color:#F09819"/>
			<stop  offset="0.2689" style="stop-color:#F1951A"/>
			<stop  offset="0.4927" style="stop-color:#F38A1D"/>
			<stop  offset="0.7005" style="stop-color:#F77923"/>
			<stop  offset="0.8972" style="stop-color:#FC612A"/>
			<stop  offset="1" style="stop-color:#FF512F"/>
		</radialGradient>
		<polygon class="st9" points="1454.2,1526 1461,1576.3 1334.1,1576.3 1334.1,1526 		"/>
	</g>
	<g>
		<path class="st10" d="M1342,1458.2c0,0-63.8-12.4-136.3-93.5L703,854.6c0,0-0.7-20.6-21.2-21.5c0,0-32.5,24.3-42.5,34.1
			c-10,9.8-27.6,36.8-27.6,36.8l-12.3,2.5L585,891.8c0,0,39.4-27.3,42.7-36.3c0,0,18.7-18.4,31.6-42.7l1.2-1.2L500.4,649l46.1-45.4
			l158.2,160.6l1,1c0,0,35.8-16,74.7-73.6l7.9-2l10.6,10.8l1.1,8.6c0,0-29.9,12-65.3,68.2l-8.4,6.4c0,0-4,23.3,23.2,23.5
			l519.1,526.8C1268.4,1333.8,1331.8,1400.6,1342,1458.2z"/>
	</g>
	<g>
		<path class="st10" d="M666.8,1444.7c0,0,12.4-63.8,93.5-136.3l510.1-502.7c0,0,20.6-0.7,21.5-21.2c0,0-24.3-32.5-34.1-42.5
			s-36.8-27.6-36.8-27.6l-2.5-12.3l14.7-14.5c0,0,27.3,39.4,36.3,42.7c0,0,18.4,18.7,42.7,31.6l1.2,1.2L1476,603.1l45.4,46.1
			l-160.6,158.2l-1,1c0,0,16,35.8,73.6,74.7l2,7.9l-10.8,10.6l-8.6,1.1c0,0-12-29.9-68.2-65.3l-6.4-8.4c0,0-23.3-4-23.5,23.2
			l-526.8,519.1C791.2,1371.1,724.3,1434.5,666.8,1444.7z"/>
	</g>
</g>
</svg>
