<?xml version="1.0" encoding="utf-8"?>
<!-- Generator: Adobe Illustrator 22.1.0, SVG Export Plug-In . SVG Version: 6.00 Build 0)  -->
<svg version="1.1" id="Layer_2" xmlns="http://www.w3.org/2000/svg" xmlns:xlink="http://www.w3.org/1999/xlink" x="0px" y="0px"
	 viewBox="0 0 500 500" style="enable-background:new 0 0 500 500;" xml:space="preserve">
<style type="text/css">
	.st0{fill:#E4AD7B;}
	.st1{opacity:0.21;fill:#757575;}
	.st2{fill:#A37657;}
	.st3{fill:#FFFFFF;}
	.st4{fill:#7F6454;}
</style>
<g>
	<polygon class="st0" points="375.7,217.8 382.3,232.1 382.3,239.9 382.3,251.6 378.4,267.2 382.3,289.3 382.3,317.9 378.4,349.1 
		369.2,385.5 354.9,416.6 332.8,437.4 304.1,442.6 275.5,437.4 250.7,429.6 207.8,416.6 175.2,401 158.3,372.5 158.3,340 
		147.9,323.1 134.8,327 117.9,325.7 108.8,310.1 97.1,286.7 97.1,255.5 120.5,213.9 192.1,93.1 378.4,152.9 382.3,207.4 	"/>
	<path class="st1" d="M336.7,273.1c0,0,0,0.8,0,2c0,4.5,0,15.1,0,16.2c0,1.3,3.9,11.7,5.2,11.7c1.3,0,5.2,3.9,5.2,3.9
		s7.8,13-5.2,19.5l-9.1,9.1l16.9,9.1l2.6-15.6l2.6-23.4v-18.2l-3.9-3.9c0,0,2.6-2.6,6.5-3.9s13,10.4,14.3,11.7s9.1,11.7,9.1,11.7
		l1.3,6.5l-1.3-19.5l-2.7-19.6l4-22l-16.9-18.2l-26-5.2l-19.9,4.5L325,264L336.7,273.1z"/>
	<path class="st2" d="M291.1,223h-31.3l-26,3.9l-14.3,9.1c0,0,32.6,0,35.2,0s23.4,0,23.4,0h13V223z"/>
	<path class="st2" d="M334.1,223h21.6l18,3.9l9.9,9.1c0,0-22.5,0-24.3,0c-1.8,0-16.2,0-16.2,0h-9V223z"/>
	<path class="st3" d="M373.1,252.9c0,0-13-20.8-39.1,2.6C334.1,255.5,365.3,265.9,373.1,252.9z"/>
	<path class="st3" d="M280.7,250.3c0,0-13-20.8-39.1,2.6C241.6,252.9,272.9,263.3,280.7,250.3z"/>
	<ellipse cx="356.2" cy="251.6" rx="7.8" ry="7.8"/>
	<ellipse cx="262.5" cy="249" rx="7.8" ry="7.8"/>
	<g>
		<path d="M280.5,249.9c-0.4-0.3-2,1.6-5.5,2.8c-1.7,0.6-3.9,1.1-6.3,1.2c-2.5,0.1-5.3,0-8.2-0.2c-11.8-0.6-21.4-2.5-21.6-1.6
			c-0.3,0.8,9.2,4.2,21.4,4.9c3,0.2,6,0.2,8.7-0.1c2.7-0.3,5.2-1.1,7-2.1c1.9-1,3.1-2.2,3.8-3.2
			C280.5,250.7,280.6,250.1,280.5,249.9z"/>
	</g>
	<g>
		<path d="M378.6,248.2c0.2-0.4-1.8-1.8-5.3-3.4c-3.5-1.6-8.8-3.1-14.7-3.7c-5.9-0.5-11.3,0-15.1,0.9c-3.8,0.9-6,1.9-5.9,2.4
			c0.2,0.9,9.4-1.1,20.7,0C369.6,245.3,378.2,249,378.6,248.2z"/>
	</g>
	<g>
		<path d="M282.1,242.6c0-0.5-2.1-1-5.5-2c-3.4-0.9-8.2-2.4-13.9-2.9c-5.6-0.4-10.8,0.3-14.3,1.2c-3.6,1-5.6,2.1-5.4,2.5
			c0.3,0.9,8.9-1.4,19.5-0.5c5.3,0.4,10.1,1.5,13.7,1.9C279.8,243.3,282.1,243.1,282.1,242.6z"/>
	</g>
	<path class="st4" d="M162,232.7l6.7,38.4c0,0-1.3,11.7,0,13c1.3,1.3,11.7,19.5,11.7,19.5l13,15.6l15.6,14.3l13,13l6.5,3.9l14.3,2.6
		l31.3-10.4l15.6-1.3l11.7-9.1h13h31.3l15.6,13l5.2,13l6.9,8.1l-5.6,23.1l-5.2,16.9l-2.6,10.4l-7.8,10.4l-10.4,15.6
		c0,0-10.4,5.2-15.6,5.2s-16.9-1.3-28.6,0c-11.7,1.3-31.3-5.2-33.9-5.2c-2.6,0-28.6-7.8-28.6-7.8l-30-9.1l-19.5-10.4l-15.6-13
		l-11.7-16.9l-7.8-23.4l-5.2-29.9V232.1L162,232.7z"/>
	<path class="st2" d="M199.9,163.2l24.7,18.2l-16.9,20.8l-13,5.2l-15.6,6.5c0,0-13,14.3-15.6,16.9s-9.1,14.3-9.1,14.3V262L144,245.1
		c0,0-9.1-3.9-11.7-5.2c-2.6-1.3-19.5-3.9-19.5-3.9l-9.1,7.8v-26v-23.4v-15.6l-6.5,10.4v-26l-3.9,5.2l9.1-33.8l15.6-23.4l15.6-16.9
		l20.8-16.9l22.1-18.2l23.4-5.2l19.5-3.9L252,45l27.3,9.1h20.8l20.8,10.4h19.5l-9.1,5.2l18.2,7.8c0,0,7.8,11.7,10.4,11.7
		s23.4,11.7,23.4,11.7l-15.6-2.6l15.6,9.1l-16.9-1.3l10.4,5.2l16.9,9.1l7.8,10.4l-15.6-3.9l3.9,9.1l11.7,11.7l5.2,11.7l-10.4-6.5
		l1.3,28.6l-7.8-18.2l1.3,24.7l-5.2-9.1l1.3,18.2l-2.6,15.6l-5.2,11.7l-3.9-6.5l1.3-35.1l-3.9-9.1l-5.2,15.6l-7.8-23.4l-16.9-6.5
		l-23.4-2.6l11.7,19.5l6.5,16.9l-23.4-24.7l-14.3-15.6h-9.1l-1.3,26l-7.8-26l-16.9-10.4l-3.9,10.4l-19.5-10.4c0,0,0,14.3,0,15.6
		c0,1.3-18.2-22.1-18.2-22.1l3.9,16.9l-32.6-11.7l22.1,19.5l-15.6-7.8l6.5,10.4H199.9z"/>
	<g>
		<path d="M328.7,239.1c0.6-0.7-3.1-4.5-5.4-10.3c-2.4-5.8-2.3-11.1-3.2-11.2c-0.4-0.1-1,1.3-1.2,3.6c-0.2,2.3,0.1,5.5,1.4,8.8
			c1.3,3.3,3.3,5.9,5,7.4C327.1,238.9,328.5,239.4,328.7,239.1z"/>
	</g>
	<g>
		<path d="M301.5,237.5c0.4,0.2,1.4-0.8,2.6-2.9c1.2-2,2.4-5.1,3.1-8.6c0.7-3.5,0.6-6.8,0.2-9.2c-0.4-2.3-1-3.7-1.4-3.6
			c-0.9,0.1-0.8,5.7-2,12.2C302.8,231.9,300.6,237,301.5,237.5z"/>
	</g>
	<g>
		<path d="M137.8,276.1c0.1-0.2-0.2-0.6-1.1-0.6c-0.8-0.1-1.9,0.4-2.8,1.3c-0.5,0.4-0.9,1-1.3,1.5c-0.4,0.5-0.8,1.1-1.1,1.7
			c-0.7,1.3-1.5,2.7-2,4.3c-0.6,1.6-1,3.1-1.2,4.8c-0.1,0.8,0,1.7,0.2,2.5c0.3,0.8,0.8,1.6,1.5,2c0.7,0.4,1.2,0.5,1.6,0.6
			c0.4,0.1,0.7,0.1,0.9,0.2c0.4,0.1,0.7,0.3,0.9,0.3c0.2,0,0.4-0.5-0.1-1.2c-0.5-0.7-1.5-1.2-1.9-1.7c-0.2-0.2-0.3-0.5-0.3-0.9
			c0-0.4,0-0.9,0.1-1.5c0.2-1.1,0.8-2.6,1.3-4c0.5-1.5,1.1-2.8,1.7-4.1c0.3-0.6,0.5-1.2,0.8-1.8c0.2-0.6,0.5-1,0.7-1.4
			c0.5-0.8,0.9-1.3,1.3-1.5C137.4,276.4,137.8,276.3,137.8,276.1z"/>
	</g>
	<g>
		<path d="M120,255.9c0-0.2-0.8-0.3-1.8,0.4c-1,0.7-1.9,2.2-2.6,3.8c-1.6,3.4-3.1,8.3-3.9,13.9c-0.8,5.6-1,10.6-0.9,14.3
			c0.1,3.7,0.4,5.9,0.9,5.9c0.5,0,1-2.2,1.4-5.8c0.5-3.6,1-8.6,1.8-13.9c0.8-5.4,1.9-10.2,2.8-13.6c0.4-1.8,0.8-3,1.3-3.7
			C119.5,256.4,120,256.1,120,255.9z"/>
	</g>
	<g>
		<path d="M374.1,253.5c-0.4-0.9-8.7,2.9-19.5,3.5c-10.9,0.7-19.5-2-19.8-1c-0.1,0.4,1.9,1.6,5.5,2.7c1.8,0.6,4,1,6.5,1.3
			c2.5,0.3,5.2,0.4,8.1,0.2c2.9-0.2,5.6-0.6,8-1.2c2.4-0.6,4.5-1.3,6.2-2.1C372.4,255.3,374.3,253.8,374.1,253.5z"/>
	</g>
	<g>
		<path d="M348.9,371.3c0.1-0.2-0.6-1-2-2.6c-0.7-0.8-1.6-1.7-2.7-2.7c-1.1-1-2.5-2.1-4.2-3c-1.7-0.9-3.8-1.6-6-2.1
			c-2.2-0.5-4.6-0.7-7.1-0.7c-2.5-0.1-5.1,0-7.7,0.1c-2.6,0.1-5.4,0.1-8.2,0.2c-22.4,0.2-40.5-1.9-40.6-0.9
			c-0.2,0.8,18,4.4,40.7,4.2c2.8,0,5.6-0.1,8.3-0.2c2.7-0.1,5.2-0.3,7.6-0.3c4.8-0.1,9,0.5,12.1,1.9c3.2,1.4,5.4,3.4,7,4.6
			C347.7,370.9,348.7,371.5,348.9,371.3z"/>
	</g>
</g>
</svg>
