<?xml version="1.0" encoding="utf-8"?>
<!-- Generator: Adobe Illustrator 22.1.0, SVG Export Plug-In . SVG Version: 6.00 Build 0)  -->
<svg version="1.1" xmlns="http://www.w3.org/2000/svg" xmlns:xlink="http://www.w3.org/1999/xlink" x="0px" y="0px"
	 viewBox="0 0 500 500" style="enable-background:new 0 0 500 500;" xml:space="preserve">
<style type="text/css">
	.st0{fill:#E4AD7B;}
	.st1{opacity:0.21;}
	.st2{fill:#757575;}
	.st3{fill:#141419;}
	.st4{fill:#FFFFFF;}
</style>
<g id="Layer_2">
</g>
<g id="Layer_3">
	<g>
		<path class="st0" d="M167.1,163.5L132.6,222c0,0-4.8,49.3-4.4,57.5c0.5,8.1,50.3,121.2,50.3,121.2l30.2,36.9l54.1,4.3l39.3-12.9
			l24.9-28.7c0,0,35.4-57.5,36.9-58.9c1.4-1.4,17.2-109.2,17.2-109.2s-21.6-69.9-23.9-70.9c-2.4-1-69-29.2-69-29.2l-57.5-1.9
			L167.1,163.5z"/>
	</g>
	<g class="st1">
		<path class="st2" d="M351.4,181.9c0,0-13.9,39.7-12.3,53.1c1.5,13.5-36.2,3.8-36.2,3.8l-32.7,20c0,0-4.6-5,0,21.9
			c4.6,27,4.6,27,4.6,27s10.4-0.4,12.7,19.6c0,0-0.3,4.9-7.7,8.5s12.3,20.8,12.3,20.8s21.6-31.6,13.9-38.9l-16.2-20.8l-5-13.1
			c0,0,36.2,11.6,43.7-0.8l19.8,6.2l-14.6,20c0,0-3.4,38.9,3.1,45.2c6.5,6.4,44.3-81.8,44.3-81.8l-27-90.9H351.4z"/>
	</g>
	<g>
		<polygon class="st3" points="238.2,250.1 224.6,243.3 206.4,241.3 179.4,242.8 170.7,241.3 167.3,231.4 180.6,229 193.2,227.7 
			210.7,230.4 225.8,229.9 234.5,230.2 239.9,235.3 		"/>
		<path class="st3" d="M238.8,251.3l-14.5-7.2l-18.1-1.9l-26.8,1.5l-9.4-1.5l-3.8-11.3l14.3-2.6l12.7-1.2l17.7,2.7l14.9-0.5l9.1,0.3
			l5.8,5.6L238.8,251.3z M206.3,240.6l18.6,2l12.6,6.3l1.5-13.3l-4.8-4.6l-8.4-0.2l-15,0.5l-17.6-2.7l-12.4,1.2l-12.4,2.3l2.9,8.6
			l8.3,1.4L206.3,240.6z"/>
	</g>
	<g>
		<polygon class="st3" points="276.1,253.2 289.9,246.4 308.5,244.5 335.9,246 344.8,244.5 348.3,234.5 334.7,232.1 321.8,230.9 
			304,233.6 288.7,233.1 279.8,233.3 274.3,238.4 		"/>
		<path class="st3" d="M275.4,254.5l-1.9-16.3l6-5.6l9.2-0.2l15.4,0.5l17.7-2.7l13.1,1.2l14.6,2.6l-3.9,11.3l-9.4,1.5l-27.6-1.4
			l-18.3,1.9L275.4,254.5z M275.2,238.7l1.6,13.3l13.1-6.4l18.5-1.9l27.6,1.5l8.3-1.4l3-8.6l-12.7-2.3l-12.8-1.2l-17.6,2.7
			l-15.5-0.5l-8.6,0.2L275.2,238.7z"/>
	</g>
	<g>
		<path class="st3" d="M142.7,303.5l13.4,20.8l15.9,24.6l12.3,19.1l3,11.9l9.8,21.6l24.6,15.7l14.4,4.2l11-7.2l19.5-0.4l7.8,7.6
			c0,0,26.6-14.4,25.3-14.8s11.7-13.6,11.7-13.6l20.2-27.2l23.3-49.2l6.4-15.7l-12.9,62.4c0,0-12.6,28.4-13.4,30.1
			s-23.3,32.2-23.6,33.5s-15.5,18.7-16.8,18.7c-1.3,0-30.1,6.8-30.1,6.8h-46.7l-26.7-17l-28.8-50.5l-12.7-21.2L142.7,303.5z"/>
		<path class="st3" d="M217.8,453.2h-0.2l-27.2-17.4l-28.9-50.5l-12.8-21.5l-7.2-63.6l43.5,67.6l3,11.9l9.6,21.3l24.3,15.5l14,4.1
			l10.9-7.1l20.1-0.4l7.6,7.5c8.7-4.7,22.1-12.2,24.3-14c0-0.7,1-2.9,12-14l20.1-27.1l23.3-49.1l6.3-15.7l1.5,0.5l-12.9,62.4
			c-0.6,1.3-12.6,28.6-13.5,30.3c-0.4,0.7-3.8,5.5-9.3,13.2c-5.8,8-13.7,19.1-14.2,20.2c-0.2,1.2-15.6,19.2-17.5,19.2
			c-1.1,0.1-18.5,4.1-29.9,6.8L217.8,453.2z M218,451.6h46.4c4.5-1.1,27.5-6.5,30-6.8c1.7-1,15.4-16.3,16.1-18.1
			c0.1-0.7,2.9-4.7,14.4-20.7c4.4-6.1,8.9-12.4,9.2-13c0.8-1.7,13.3-29.8,13.4-30.1l11.1-53.7l-3.1,7.6l-23.4,49.3L312,393.5
			c-5.2,5.3-10.7,11.3-11.5,12.8l0,0.3c0.1,0.6,0.1,1.5-25.8,15.6l-0.5,0.3l-8-7.8l-19,0.4l-11.2,7.3l-15-4.4L196.4,402l-0.1-0.2
			l-9.8-21.6l-3-11.9l-39.7-61.5l6.4,56.7l12.6,21.1l28.8,50.3L218,451.6z"/>
	</g>
	<g>
		<path class="st3" d="M192.7,376.7l16.1-20.6l11.5-4.2h10.2l6.8-11.5l9.8-2.1l9.3,3.8v13.2l-23.3,6.4l-15.3,8.9
			c0,0-12.7,8.1-14.2,8.5C202.1,379.4,192.7,376.7,192.7,376.7z"/>
		<path class="st3" d="M203.2,379.8c-2.3,0-8.6-1.8-10.7-2.4l-1.1-0.3l17-21.7l11.9-4.4h9.7l6.7-11.4l10.3-2.2l10.1,4.1v14.3
			l-23.8,6.5l-15.2,8.9c-2.1,1.3-12.9,8.1-14.4,8.6C203.6,379.8,203.4,379.8,203.2,379.8z M194.1,376.2c4.1,1.2,8.5,2.2,9.3,2
			c1-0.3,9.1-5.3,14-8.4l15.5-9l22.7-6.2v-12l-8.6-3.5l-9.2,2l-6.8,11.5h-10.5l-11.1,4.1L194.1,376.2z"/>
	</g>
	<g>
		<path class="st3" d="M328.5,377.9l-16.7-20.6l-11.8-4.2h-10.5l-7-11.5l-10.1-2.1l-9.6,3.8v13.2l24.1,6.4l15.8,8.9
			c0,0,13.2,8.1,14.7,8.5C318.9,380.7,328.5,377.9,328.5,377.9z"/>
		<path class="st3" d="M317.7,381.1c-0.3,0-0.5,0-0.6-0.1c-1.6-0.4-12.7-7.2-14.9-8.6l-15.7-8.8l-24.6-6.5v-14.3l10.4-4.1L283,341
			l7,11.4l10.3,0l12,4.3l17.6,21.7l-1.2,0.3C326.6,379.3,320.1,381.1,317.7,381.1z M263.5,355.9l23.7,6.3l15.8,8.9
			c5.1,3.1,13.5,8.1,14.5,8.4c0.8,0.2,5.4-0.8,9.6-2L311.4,358l-11.5-4.1H289l-7.1-11.5l-9.5-2l-8.9,3.5V355.9z"/>
	</g>
	<g>
		<polygon class="st3" points="245.8,391.3 243.2,398.9 251.9,404.4 262.7,404.4 274.3,401.9 271.2,393.8 		"/>
		<path class="st3" d="M251.9,405.2h-0.2l-9.4-6l2.9-8.8l26.6,2.7l3.6,9.4l-12.5,2.7L251.9,405.2z M252.2,403.7h10.6l10.5-2.3
			l-2.6-6.7l-24.3-2.4l-2.2,6.4L252.2,403.7z"/>
	</g>
	<g>
		<path class="st3" d="M270.8,143.1l-8.1,22.1l-29.7-11l-8.5-11l-10.2,7.2l-2.1,10.2c0,0,3.8,14,0,14.4c-3.8,0.4-12.7,2.5-12.7,2.5
			l-16.1,5.1l-9.8,13.6l-17.6,13.2l1.9,15.3c0,0,5.5,15.1,5.5,17.5c0,2.4-9.3,24.5-9.3,24.5v14.8l-4.2,17.4l-6.1,14.9l-1.2,35.6
			c0,0,0.8,29.4,0,31s-16.5,11-16.5,11s-35.6-11.4-39.9-11s-22.9-24.7-22.9-24.7l-17.4-17.4l-5.1-34.8l17.8-21.6l3.4-14.6l5.5-14
			l-9.3-22.3l1.7-23.3l8.1-15.7l4.2-24.2l7.2-17.8l28.8-19.5l11-23.8l13.3-16.5l27.9-19.5l24.6-18.7h22.5l23.8-11l25,3.8l30.1-3.8
			l31.4,5.1l12.7,10.6l24.6,8.5l23.3,27.6l14.8,31.8l7.2,36.5c0,0,8.5,9.8,9.8,10.2s18.7,34.4,18.7,34.4l3,25.4l5.1,27.6l17,20.4
			l5.1,22.1l-9.8,27.6l-11,24.6c0,0-33.1,40.7-34.4,40.7c-1.3,0-17,10.6-17,10.6l-35.6,8.1l-15.7-5.5L365,286.5l-3.8-50.9l-6.4-32.2
			l-11.9-30.1l-18.2-16.1l-29.1-9.3L270.8,143.1z"/>
		<path class="st3" d="M351.4,413.3l-16.6-5.8l0.2-0.7l29.2-120.4l-3.8-50.8l-6.3-32.2l-11.8-29.8l-18-15.9l-28.9-9.3l-24.1-4.5
			l-8.1,22.2l-30.7-11.4l-8.2-10.6l-9.3,6.6l-2,9.7c0.5,1.8,2.9,11.3,0.9,14.2c-0.4,0.6-1,0.9-1.6,1c-3.7,0.4-12.5,2.5-12.6,2.5
			l-15.8,5l-9.8,13.5l-17.2,12.9l1.8,14.8c0.5,1.4,5.5,15.1,5.5,17.6c0,2.5-8.1,21.8-9.3,24.7v14.7l-4.3,17.6l-6,14.9l-1.1,35.4
			c0.2,6.9,0.8,29.7-0.1,31.4c-0.9,1.7-13.1,9.1-16.8,11.3l-0.3,0.2l-0.3-0.1c-9.7-3.1-35.3-11-39.4-11c-0.1,0-0.1,0-0.2,0
			c0,0-0.1,0-0.1,0c-4.6,0-20.4-20.8-23.5-25l-17.5-17.5L40,303.2l17.9-21.8l3.4-14.5l5.4-13.8L57.4,231l1.8-23.8l8-15.6l4.2-24.1
			l7.3-18.2l28.9-19.5l10.9-23.6l13.5-16.9L160,69.9l24.8-18.8h22.6L231.2,40l25.2,3.8l30.1-3.8l31.7,5.1L331,55.9l24.7,8.5l0.1,0.2
			l23.5,27.8l14.8,31.8l7.2,36.5c4,4.5,8.5,9.4,9.3,9.8c0.4,0.1,1.6,0.5,19.1,34.7l0.1,0.3l3,25.4l5,27.3l17,20.5L460,301l-9.8,27.8
			L439,353.6c-33.3,41-34.5,41-35,41c-1,0.2-9.3,5.6-16.5,10.5l-0.3,0.1L351.4,413.3z M336.7,406.5l14.8,5.2l35.3-8
			c5.6-3.8,14.9-10,17-10.6c1.9-1.3,21.3-24.8,34-40.4l11-24.5l9.7-27.3l-5-21.7l-17-20.4l-5.1-27.8l-3-25.3
			c-6.4-12.4-16.9-32.4-18.3-33.9c-1.6-0.9-7.4-7.5-9.9-10.3l-0.1-0.2l0-0.2l-7.2-36.5l-14.7-31.5l-23.1-27.3l-24.6-8.6l-12.6-10.5
			l-31.1-5l-30.1,3.8l-24.9-3.8l-23.9,11h-22.2L161,71.2l-27.8,19.5L120,107.1l-11,23.8l-28.8,19.5L73,168l-4.3,24.2l-8,15.6
			l-1.7,23l9.4,22.5l-5.6,14.3l-3.5,14.8l-17.6,21.4l5,34.2l17.2,17.2c9.1,12.2,19.9,24.6,22.3,24.4c4.2-0.3,34.9,9.3,39.9,10.9
			c7.4-4.4,15.3-9.5,15.9-10.5c0.5-1.5,0.2-19.6-0.1-30.6l1.2-35.9l6.1-14.9l4.2-17.3l0-14.8l0.1-0.1c3.6-8.5,9.3-22.5,9.3-24.2
			c0-1.7-3.3-11.2-5.5-17.2l-2-15.9l17.8-13.4l9.8-13.7l16.4-5.2c0.4-0.1,9.1-2.2,12.9-2.6c0.1,0,0.3-0.1,0.5-0.3
			c1.3-1.9,0-9-1.2-13.1l0-0.2l2.2-10.7l11.1-7.8l8.8,11.5l28.7,10.7l8-21.9l25.5,4.8l29.4,9.5l18.5,16.4l11.9,30.1l6.4,32.4
			l3.8,51.1l0,0.1L336.7,406.5z"/>
	</g>
	<g>
		<path class="st4" d="M228.2,260.9c0,0-17.3-23.9-42.7-3.1C185.5,257.8,204.7,273.6,228.2,260.9z"/>
	</g>
	<g>
		<path class="st4" d="M284.9,261.7c0,0,17.7-23.9,43.6-3.1C328.5,258.6,308.9,274.4,284.9,261.7z"/>
	</g>
	<g>
		<circle cx="206.8" cy="257.5" r="7.9"/>
		<path d="M206.8,267c-5.2,0-9.5-4.2-9.5-9.5c0-5.2,4.2-9.5,9.5-9.5c5.2,0,9.5,4.2,9.5,9.5C216.3,262.8,212.1,267,206.8,267z
			 M206.8,251.3c-3.5,0-6.3,2.8-6.3,6.3c0,3.5,2.8,6.3,6.3,6.3c3.5,0,6.3-2.8,6.3-6.3C213.1,254.1,210.3,251.3,206.8,251.3z"/>
	</g>
	<g>
		<circle cx="306.7" cy="258.4" r="7.9"/>
		<path d="M306.7,267.8c-5.2,0-9.5-4.2-9.5-9.5c0-5.2,4.2-9.5,9.5-9.5s9.5,4.2,9.5,9.5C316.2,263.6,311.9,267.8,306.7,267.8z
			 M306.7,252.1c-3.5,0-6.3,2.8-6.3,6.3c0,3.5,2.8,6.3,6.3,6.3s6.3-2.8,6.3-6.3C313,254.9,310.2,252.1,306.7,252.1z"/>
	</g>
	<g>
		<g>
			<path d="M179.7,251c0.2,0.2,2.8-1.8,7.8-3.2c5-1.5,12.3-1.9,20.1-0.3c7.8,1.6,14.7,4.1,19.8,5.6c5.1,1.5,8.2,2.4,8.3,2.2
				c0.1-0.2-3-1.4-7.9-3.3c-5-1.8-11.8-4.5-19.8-6.1c-8-1.7-15.7-1-20.8,0.8c-2.5,0.9-4.5,2-5.7,2.8
				C180.2,250.3,179.6,250.9,179.7,251z"/>
			<path d="M235.7,256.1c-0.9,0-3.1-0.6-8.5-2.2c-1.4-0.4-2.9-0.9-4.6-1.4c-4.5-1.4-9.5-3-15.1-4.1c-6.9-1.4-14.3-1.3-19.7,0.3
				c-3.2,0.9-5.4,2.1-6.6,2.7c-1,0.5-1.6,0.8-2.1,0.2l-0.2-0.3l0.1-0.4c0.1-0.5,0.8-1.1,2.1-2c1.2-0.8,3.1-1.9,5.9-2.9
				c5.8-2.1,13.7-2.4,21.2-0.9c6.8,1.4,12.7,3.5,17.4,5.2c0.9,0.3,1.7,0.6,2.5,0.9c8.8,3.2,8.7,3.4,8.4,4.3
				C236.4,255.8,236.3,256.1,235.7,256.1z M200.7,245.8c2.4,0.1,4.8,0.5,7.1,1c2.5,0.5,4.9,1.1,7.2,1.7c-2.3-0.7-4.7-1.3-7.2-1.8
				C205.4,246.2,203,245.9,200.7,245.8z"/>
		</g>
	</g>
	<g>
		<g>
			<path d="M342.3,250.2c0-0.1-0.8-0.5-2.2-1.1c-1.5-0.6-3.7-1.3-6.4-2c-5.5-1.4-13.5-2.3-22.2-1.3c-8.7,1-16.2,3.6-21.3,6.2
				c-2.6,1.3-4.5,2.4-5.8,3.3c-1.3,0.9-2,1.4-1.9,1.5c0.1,0.2,3.1-1.6,8.3-3.8c5.1-2.2,12.5-4.6,21-5.6c8.5-0.9,16.2-0.2,21.7,0.8
				C338.9,249.3,342.2,250.5,342.3,250.2z"/>
			<path d="M282.4,257.7c-0.3,0-0.5-0.1-0.6-0.4c-0.5-0.8,0.2-1.3,2.2-2.6c1.4-1,3.5-2.2,5.9-3.4c3.6-1.8,11.3-5.1,21.6-6.2
				c10.3-1.1,18.5,0.4,22.4,1.3c2.7,0.6,4.9,1.3,6.6,2c2.2,0.9,3,1.2,2.7,2.1c-0.3,0.8-0.8,0.7-3.2,0.1c-1.5-0.4-3.8-1-6.6-1.5
				c-3.9-0.8-11.9-1.9-21.5-0.8c-9.6,1.1-17.1,3.9-20.8,5.5c-2.7,1.2-4.8,2.2-6.2,2.9C283.5,257.4,282.8,257.7,282.4,257.7z
				 M318.7,246.2c-2.4,0-4.8,0.1-7.2,0.4c-2.4,0.3-4.8,0.7-7.2,1.2c2.2-0.5,4.7-0.9,7.2-1.2c2.6-0.3,5-0.4,7.3-0.4
				C318.8,246.2,318.8,246.2,318.7,246.2z"/>
		</g>
	</g>
	<g>
		<g>
			<path d="M233.1,261.7c-0.1-0.2-2.5,1.5-6.9,2.2c-2.2,0.4-4.9,0.6-7.9,0.8c-3,0.2-6.3,0.4-9.8,0.4c-6.9,0.1-13.1-1.3-17.1-3.3
				c-4-2-6-4.2-6.2-4c-0.1,0.1,1.5,2.6,5.6,5c4,2.4,10.5,4.1,17.6,4c3.5,0,6.9-0.3,9.9-0.6c3-0.3,5.8-0.6,8.1-1.2
				C231,264,233.2,261.9,233.1,261.7z"/>
			<path d="M207.7,267.7c-6.6,0-13-1.5-17.3-4.1c-3.9-2.3-6-4.9-6-5.6v-0.5l0.3-0.2c0.5-0.5,1.1,0,1.8,0.6c0.9,0.7,2.6,2.1,5.1,3.3
				c4.2,2.1,10.4,3.4,16.7,3.3c3,0,5.9-0.2,8.7-0.4l1.1-0.1c3.2-0.2,5.8-0.4,7.8-0.8c2.9-0.5,4.9-1.4,5.9-1.9
				c0.7-0.3,1.3-0.6,1.7-0.1l0.3,0.3l-0.1,0.5c-0.2,0.9-3.2,3-7.3,3.9c-2.5,0.6-5.5,1-8.2,1.2c-2.6,0.2-6.3,0.6-10,0.6
				C208.2,267.7,207.9,267.7,207.7,267.7z M202,265.7c2.1,0.3,4.2,0.4,6.4,0.4c2.2,0,4.4-0.1,6.4-0.3c-2,0.1-4.2,0.2-6.4,0.2
				C206.2,266,204.1,265.9,202,265.7z"/>
		</g>
	</g>
	<g>
		<path class="st3" d="M258.8,364.9c0,0-13.3-11.3-24.4,0c-11.2,11.3-16.9,15.4-16.9,15.4s24-12.5,39-5.5c0,0,27.3-2.1,36.3,5.5
			C292.7,380.3,274.7,348.1,258.8,364.9z"/>
	</g>
	<g>
		<path d="M192.7,298.6"/>
	</g>
	<g>
		<g>
			<path d="M232.7,272.8c0-0.1-0.7,0-2,0.3c-1.3,0.2-3.1,0.5-5.4,0.8c-4.6,0.5-11,0.8-18,0c-7-0.8-13.2-2.5-17.6-4.1
				c-2.2-0.8-3.9-1.5-5.1-2c-1.2-0.5-1.9-0.8-1.9-0.7s0.6,0.4,1.8,1c1.2,0.6,2.9,1.4,5.1,2.2c4.3,1.7,10.6,3.5,17.7,4.3
				c7.1,0.8,13.6,0.5,18.2-0.2c2.3-0.3,4.2-0.7,5.4-1C232,273,232.7,272.8,232.7,272.8z"/>
			<path d="M215.4,275.5c-2.5,0-5.4-0.1-8.4-0.5c-8.3-1-14.7-3.1-17.8-4.4c-2-0.8-3.9-1.6-5.1-2.2c-1.9-1-2.1-1.1-1.9-1.5
				c0.2-0.4,0.5-0.3,2.4,0.5c1.3,0.6,3.1,1.3,5.1,2c3.1,1.1,9.6,3.1,17.5,4c7.9,0.9,14.7,0.4,18,0c2.1-0.2,4-0.5,5.4-0.7
				c2.1-0.4,2.4-0.4,2.5,0v0c0.1,0.5-0.2,0.5-2.2,1c-1.4,0.4-3.3,0.7-5.5,1C223.3,275.1,219.8,275.5,215.4,275.5z M200.5,273.1
				c2,0.4,4.3,0.8,6.7,1.1c2.4,0.3,4.7,0.4,6.7,0.4c-2.1-0.1-4.4-0.2-6.7-0.5C204.8,273.9,202.5,273.5,200.5,273.1z"/>
		</g>
	</g>
	<g>
		<g>
			<path d="M335.9,270.6c0-0.1-0.8,0-2.1,0.1c-1.4,0.1-3.3,0.3-5.8,0.5c-4.9,0.4-11.6,0.8-19.1,0.7c-7.5-0.1-14.2-0.6-19.1-1.1
				c-2.4-0.3-4.4-0.5-5.8-0.6c-1.4-0.2-2.1-0.2-2.1-0.2c0,0.1,0.7,0.2,2.1,0.5c1.3,0.3,3.3,0.6,5.7,0.9c4.9,0.7,11.6,1.3,19.2,1.4
				c7.5,0.1,14.3-0.4,19.2-1c2.4-0.3,4.4-0.6,5.8-0.8C335.2,270.8,335.9,270.6,335.9,270.6z"/>
			<path d="M310.4,273.2c-0.5,0-1,0-1.5,0c-8.7-0.1-15.8-0.9-19.2-1.4c-2.3-0.3-4.3-0.6-5.8-0.9c-2.2-0.4-2.5-0.5-2.4-0.9
				c0.1-0.5,0.3-0.4,2.6-0.2l5.8,0.6c4.4,0.5,11.2,1,19.1,1.1c7.9,0.1,14.7-0.4,19.1-0.7l5.8-0.5c2.3-0.2,2.5-0.2,2.6,0.2
				c0.1,0.5-0.2,0.5-2.4,0.9c-1.5,0.3-3.5,0.5-5.8,0.8C324.9,272.6,318.4,273.2,310.4,273.2z M302.1,272.2c2.1,0.1,4.4,0.2,6.8,0.2
				c2.4,0,4.7,0,6.8-0.1c-2.1,0.1-4.4,0.1-6.8,0.1C306.5,272.3,304.3,272.3,302.1,272.2z"/>
		</g>
	</g>
	<g>
		<g>
			<path d="M335.7,258.8c-0.2-0.2-2.7,1.4-7.2,3.2c-4.4,1.9-10.9,3.7-18.2,4.2c-7.3,0.4-13.9-0.7-18.5-2c-4.6-1.3-7.4-2.6-7.5-2.3
				c-0.1,0.1,2.5,1.8,7.1,3.4c4.6,1.6,11.4,2.9,19,2.5c7.5-0.5,14.1-2.6,18.6-4.7C333.4,260.9,335.8,258.9,335.7,258.8z"/>
			<path d="M307.6,268.6c-5.7,0-11.5-0.9-16.4-2.6c-3.4-1.2-7.3-3-7.6-3.9l-0.1-0.4l0.2-0.3c0.3-0.7,0.9-0.5,2.8,0.2
				c1.3,0.4,3.1,1.1,5.5,1.8c3.3,0.9,10,2.4,18.3,2c8.3-0.5,14.8-2.8,17.9-4.1c2.3-0.9,4.1-1.8,5.3-2.4c1.8-0.9,2.4-1.2,2.8-0.5
				l0.2,0.3l-0.1,0.4c-0.2,0.9-3.9,3.2-7.1,4.8c-5.4,2.7-12.3,4.4-18.9,4.8C309.5,268.6,308.6,268.6,307.6,268.6z M304.1,266.9
				c2.1,0.1,4.3,0.2,6.4,0c2.1-0.1,4.2-0.4,6.3-0.8c-2,0.3-4.1,0.6-6.3,0.7C308.2,267,306,267,304.1,266.9z"/>
		</g>
	</g>
</g>
<g id="Layer_4">
</g>
</svg>
