<?xml version="1.0" encoding="utf-8"?>
<!-- Generator: Adobe Illustrator 22.1.0, SVG Export Plug-In . SVG Version: 6.00 Build 0)  -->
<svg version="1.1" xmlns="http://www.w3.org/2000/svg" xmlns:xlink="http://www.w3.org/1999/xlink" x="0px" y="0px"
	 viewBox="0 0 2000 2000" style="enable-background:new 0 0 2000 2000;" xml:space="preserve">
<style type="text/css">
	.st0{fill:url(#SVGID_1_);}
	.st1{fill:url(#SVGID_2_);}
	.st2{fill:#F09819;}
	.st3{fill:#FFFFFF;}
	.st4{fill:#757575;}
	.st5{fill:#3F3F3F;}
</style>
<g id="Layer_2">
</g>
<g id="Layer_3">
</g>
<g id="Layer_4">
	<g>
		<radialGradient id="SVGID_1_" cx="1000.4475" cy="1000.5519" r="986.0506" gradientUnits="userSpaceOnUse">
			<stop  offset="0.5243" style="stop-color:#F09819"/>
			<stop  offset="0.566" style="stop-color:#F38B1D"/>
			<stop  offset="0.6644" style="stop-color:#F87125"/>
			<stop  offset="0.7665" style="stop-color:#FC5F2B"/>
			<stop  offset="0.8738" style="stop-color:#FE552E"/>
			<stop  offset="0.9946" style="stop-color:#FF512F"/>
		</radialGradient>
		<polygon class="st0" points="1000.4,14.5 1077.6,513.6 1305.2,62.8 1224.3,561.3 1580,202.8 1349.1,651.9 1798.2,421 
			1439.7,776.7 1938.2,695.8 1487.4,923.4 1986.5,1000.6 1487.4,1077.7 1938.2,1305.3 1439.7,1224.4 1798.2,1580.1 1349.1,1349.2 
			1580,1798.3 1224.3,1439.8 1305.2,1938.3 1077.6,1487.5 1000.4,1986.6 923.3,1487.5 695.7,1938.3 776.6,1439.8 420.9,1798.3 
			651.8,1349.2 202.7,1580.1 561.2,1224.4 62.7,1305.3 513.5,1077.7 14.4,1000.6 513.5,923.4 62.7,695.8 561.2,776.7 202.7,421 
			651.8,651.9 420.9,202.8 776.6,561.3 695.7,62.8 923.3,513.6 		"/>
		<radialGradient id="SVGID_2_" cx="1000.4478" cy="1000.5522" r="989.5522" gradientUnits="userSpaceOnUse">
			<stop  offset="0.5243" style="stop-color:#F09819"/>
			<stop  offset="0.566" style="stop-color:#F38B1D"/>
			<stop  offset="0.6644" style="stop-color:#F87125"/>
			<stop  offset="0.7665" style="stop-color:#FC5F2B"/>
			<stop  offset="0.8738" style="stop-color:#FE552E"/>
			<stop  offset="0.9946" style="stop-color:#FF512F"/>
		</radialGradient>
		<path class="st1" d="M1000.4,1990.1L923,1489.2l-228.4,452.4l81.2-500.3l-357,359.7l231.8-450.7l-450.7,231.8l359.7-357
			l-500.3,81.2L511.8,1078l-500.9-77.4l500.9-77.4L59.3,694.8l500.3,81.2l-359.7-357l450.7,231.8L418.8,200l357,359.7L694.7,59.4
			L923,511.9L1000.4,11l77.4,500.9l228.4-452.4l-0.6,3.4l-80.6,496.9l357-359.7l-1.6,3.1l-230.2,447.6L1801,418.9l-2.5,2.4
			l-357.3,354.6l500.3-81.2l-452.4,228.4l500.9,77.4l-500.9,77.4l452.4,228.4l-3.4-0.6l-496.9-80.6l359.7,357l-3.1-1.6l-447.6-230.2
			l231.8,450.7l-2.4-2.5l-354.6-357.3l81.2,500.3l-228.4-452.4L1000.4,1990.1z M923.6,1485.8l76.9,497.3l76.9-497.3l0.8,1.5
			l226,447.7l-80.6-496.7l1.2,1.2l353.3,356l-230.1-447.5l1.5,0.8l446,229.4l-357.2-354.5l1.6,0.3l495.1,80.3l-449.2-226.8
			l497.3-76.9l-497.3-76.9l1.5-0.8l447.7-226l-496.7,80.6L1795.3,423l-447.5,230.1l0.8-1.5l229.4-446l-354.5,357.2l0.3-1.6
			l80.3-495.1l-226.8,449.2L1000.4,18l-76.9,497.3l-0.8-1.5l-226-447.7l80.6,496.7l-1.2-1.2l-353.3-356l230.1,447.5l-1.5-0.8
			L205.5,423l357.2,354.5L66,696.9l449.2,226.8l-497.3,76.9l497.3,76.9l-1.5,0.8L66,1304.2l496.7-80.6l-357.2,354.5l447.5-230.1
			l-0.8,1.5l-229.4,446l354.5-357.2l-0.3,1.6L696.8,1935L923.6,1485.8z"/>
	</g>
	<g>
		<rect x="659.8" y="799" class="st2" width="682.3" height="682.3"/>
		<path class="st2" d="M1342.7,1481.8H659.3V798.4h683.4V1481.8z M660.4,1480.7h681.3V799.5H660.4V1480.7z"/>
	</g>
	<g>
		<rect x="701.4" y="1361.4" class="st2" width="599.2" height="599.2"/>
		<path class="st2" d="M1301,1961H700.9v-600.1H1301V1961z M701.9,1960.1h598.2v-598.2H701.9V1960.1z"/>
	</g>
	<path class="st3" d="M764,941v-77l16-23l57-48l38.1-28.2L952,744l63.6-10.7L1104,755l25,14l81,60.5l35,92.5l-23,38l-158,41
		c0,0-41.9,36.1-135,8.1S791,969,791,969L764,941z"/>
	<g>
		<g>
			<path class="st3" d="M842.2,34.5c0,0,29,37.4,39.8,121.3l92.1,549.5c0,0-6.5,13,3.9,23.2c0,0,25,0.2,33.4-1.3
				c8.4-1.4,26.5-9.9,26.5-9.9l7.2,4.2l2.7,15.8c0,0-29.5-1.6-34.3,2.5c0,0-15.8,2.7-30.6,11.6l-1.1,0.2l29.3,175.1l-39,6.5l-29-173
				l-0.2-1.1c0,0-23.9-6.8-63.3,10.6l-4.7-2.5l-1.9-11.6l2.3-5.8c0,0,19.5,6.5,56.6-11.7l6.5,0c0,0,9.8-12.5-4.2-25.3l-95.1-567.5
				C839.1,145.6,828.3,74.7,842.2,34.5z"/>
		</g>
		<g>
			<circle class="st3" cx="990.5" cy="929.7" r="20.3"/>
		</g>
	</g>
	<g>
		<g>
			<path class="st3" d="M1149.9,46.6c0,0,15.1,44.9-2.3,127.6l-94,549.2c0,0-10.4,10.2-4,23.2c0,0,23.5,8.4,32,9.8
				c8.4,1.4,28.3-0.6,28.3-0.6l5.4,6.4l-2.7,15.8c0,0-27.4-11.2-33.2-8.9c0,0-15.8-2.7-32.7,0.9l-1.1-0.2l-29.9,175l-39-6.7
				l29.6-172.9l0.2-1.1c0,0-20.3-14.3-63.2-10.8l-3.7-3.9l2-11.6l4.1-4.7c0,0,16.3,12.6,57.3,7.6l6.1,2.1c0,0,13.4-8.6,4.3-25.3
				l97-567.1C1110.4,150.6,1123.5,80.1,1149.9,46.6z"/>
		</g>
		<g>
			<circle class="st3" cx="995.3" cy="940.8" r="20.3"/>
		</g>
	</g>
	<g>
		<g>
			<path class="st3" d="M1432.8,119.2c0,0,2.8,47.3-35.6,122.6L1163,747.4c0,0-12.7,7.1-9.9,21.3c0,0,20.5,14.2,28.3,17.8
				c7.8,3.6,27.5,6.8,27.5,6.8l3.6,7.5l-6.7,14.6c0,0-23.5-18-29.7-17.3c0,0-14.6-6.7-31.8-7.7l-1-0.4l-74.6,161.1l-35.9-16.6
				l73.7-159.1l0.4-1c0,0-15.9-19.1-58.2-27l-2.5-4.7l4.9-10.7l5.2-3.5c0,0,12.5,16.4,53.3,22.3l5.4,3.7c0,0,15.2-4.8,10.8-23.3
				l241.8-522.1C1367.5,209.2,1398.6,144.7,1432.8,119.2z"/>
		</g>
		<g>
			<circle class="st3" cx="1049.9" cy="942" r="20.3"/>
		</g>
	</g>
	<g>
		<g>
			<path class="st3" d="M1676.5,283.7c0,0-10.5,46.2-68.5,107.7l-366.4,419.8c0,0-14.2,3.2-15.5,17.7c0,0,15.7,19.4,22.2,25
				c6.4,5.6,24.5,14.3,24.5,14.3l1.3,8.2l-10.5,12.1c0,0-17.5-23.8-23.7-24.9c0,0-12.1-10.5-28.4-16.3l-0.8-0.7l-116.7,133.7
				l-29.8-26l115.3-132.1l0.7-0.8c0,0-9.9-22.8-48.3-42.2l-1.1-5.2l7.7-8.9l5.9-1.9c0,0,7.4,19.2,44.9,36.4l4.1,5
				c0,0,15.9-0.3,16.9-19.3l378.4-433.5C1588.6,351.9,1636.5,298.6,1676.5,283.7z"/>
		</g>
		<g>
			<circle class="st3" cx="1078.5" cy="966.3" r="20.3"/>
		</g>
	</g>
	<g>
		<g>
			<path class="st3" d="M1877.9,577.3c0,0-28.9,37.5-107.3,69.1l-508.7,227.5c0,0-14.2-3-21.5,9.6c0,0,6.1,24.2,9.6,32
				c3.5,7.8,16.2,23.2,16.2,23.2l-2.3,8l-14.6,6.5c0,0-5.9-29-11-32.6c0,0-6.5-14.6-19-26.7l-0.4-1l-162.1,72.5l-16.2-36.1
				l160.1-71.6l1-0.4c0,0,0.6-24.9-26.2-58.6l1.2-5.2l10.7-4.8l6.2,0.7c0,0-1.4,20.5,25.5,51.8l1.6,6.3c0,0,14.6,6.4,23.4-10.5
				l525.3-234.9C1769.6,602.3,1835.4,574,1877.9,577.3z"/>
		</g>
		<g>
			<circle class="st3" cx="1048.8" cy="946.2" r="20.3"/>
		</g>
	</g>
	<g>
		<g>
			<path class="st3" d="M1959.5,849.5c0,0-38,28.3-122,37.5l-551.2,81.4c0,0-12.9-6.7-23.3,3.4c0,0-0.6,25,0.6,33.4
				s9.3,26.7,9.3,26.7l-4.4,7.1l-15.9,2.3c0,0,2.1-29.5-1.8-34.3c0,0-2.3-15.9-11-30.8l-0.2-1.1l-175.6,25.9l-5.8-39.1l173.5-25.6
				l1.1-0.2c0,0,7.3-23.8-9.4-63.5l2.5-4.7l11.6-1.7l5.8,2.4c0,0-6.9,19.4,10.5,56.8l-0.1,6.5c0,0,12.3,10.1,25.4-3.7l569.2-84
				C1848.5,844.2,1919.5,834.8,1959.5,849.5z"/>
		</g>
		<g>
			<circle class="st3" cx="1061.6" cy="980.4" r="20.3"/>
		</g>
	</g>
	<g>
		<g>
			<path class="st3" d="M560.4,121c0,0,38.2,28,71.7,105.6l239.7,503c0,0-2.7,14.3,10.1,21.2c0,0,24-6.7,31.8-10.4
				s22.8-16.8,22.8-16.8l8.1,2.1l6.9,14.5c0,0-28.8,6.6-32.3,11.8c0,0-14.5,6.9-26.2,19.6l-1,0.5l76.4,160.3l-35.7,17l-75.5-158.3
				l-0.5-1c0,0-24.9,0-57.9,27.6l-5.2-1.1l-5.1-10.6l0.6-6.2c0,0,20.6,0.9,51.2-26.8l6.3-1.8c0,0,6-14.7-11-23.2L588,228.7
				C588,228.7,558.1,163.6,560.4,121z"/>
		</g>
		<g>
			<circle class="st3" cx="949.4" cy="940.9" r="20.3"/>
		</g>
	</g>
	<g>
		<g>
			<path class="st3" d="M318.5,294.7c0,0,44.7,15.7,99.3,80.3l375.5,411.7c0,0,1.6,14.5,15.9,17.4c0,0,21.1-13.4,27.4-19.2
				c6.3-5.8,16.9-22.7,16.9-22.7l8.3-0.4l10.8,11.9c0,0-25.7,14.7-27.4,20.7c0,0-11.9,10.8-19.4,26.4l-0.8,0.7l119.6,131.2
				l-29.2,26.7L797.1,849.7l-0.7-0.8c0,0-23.8,7.2-47.4,43.2l-5.3,0.5l-7.9-8.7l-1.2-6.1c0,0,19.9-5.1,41.2-40.5l5.5-3.5
				c0,0,1.5-15.8-17.3-19L376.2,389.8C376.2,389.8,328.7,336.1,318.5,294.7z"/>
		</g>
		<g>
			<circle class="st3" cx="928.8" cy="966.3" r="20.3"/>
		</g>
	</g>
	<g>
		<g>
			<path class="st3" d="M144.3,566.2c0,0,47.3-1.5,121.5,39.1L764.4,854c0,0,6.7,12.9,21.1,10.5c0,0,14.8-20.1,18.6-27.8
				s7.6-27.3,7.6-27.3l7.6-3.4l14.4,7.2c0,0-18.6,23-18.1,29.2c0,0-7.2,14.4-8.6,31.6l-0.5,1l158.9,79.3l-17.7,35.4l-156.9-78.3
				l-1-0.5c0,0-19.6,15.3-28.6,57.4l-4.8,2.4l-10.5-5.3l-3.4-5.3c0,0,16.7-12,23.9-52.6l3.8-5.3c0,0-4.3-15.3-23-11.5L232.4,634
				C232.4,634,168.7,601.1,144.3,566.2z"/>
		</g>
		<g>
			<circle class="st3" cx="955.6" cy="972.7" r="20.3"/>
		</g>
	</g>
	<g>
		<g>
			<path class="st3" d="M52.9,845.4c0,0,44.8-15.4,127.7,1.3l549.9,89.8c0,0,10.2,10.3,23.2,3.8c0,0,8.2-23.6,9.6-32
				c1.4-8.4-0.8-28.3-0.8-28.3l6.3-5.5l15.8,2.6c0,0-11,27.5-8.7,33.3c0,0-2.6,15.8,1.2,32.7l-0.2,1.1l175.2,28.6l-6.4,39.1
				l-173.1-28.3l-1.1-0.2c0,0-14.2,20.4-10.3,63.3l-3.9,3.7l-11.6-1.9l-4.8-4c0,0,12.4-16.4,7.2-57.3l2.1-6.2c0,0-8.7-13.3-25.3-4.1
				l-567.9-92.7C157.1,884.1,86.5,871.5,52.9,845.4z"/>
		</g>
		<g>
			<circle class="st3" cx="948.2" cy="993.2" r="20.3"/>
		</g>
	</g>
	<g>
		<rect x="659.3" y="1346" class="st3" width="104.8" height="656.7"/>
	</g>
	<g>
		<rect x="1232.5" y="1346" class="st3" width="110.2" height="656.7"/>
	</g>
	<g>
		<path class="st4" d="M659.3,1481.8"/>
	</g>
	<g>
		<polygon class="st3" points="489.2,2002.6 660.9,1831 1337.3,1831 1508.7,2002.4 		"/>
	</g>
	<g>
		<rect x="756.6" y="1481.8" class="st3" width="508" height="101.6"/>
	</g>
	<circle class="st3" cx="995" cy="941" r="328"/>
	<g>
		<g>
			<g>
				<path class="st5" d="M1310,602.8c0,0-13.7,45.3-75.9,102.6l-395.1,392.9c0,0-14.4,2.2-16.7,16.6c0,0,14.3,20.5,20.3,26.5
					c6,6.1,23.4,15.9,23.4,15.9l0.7,8.3l-11.4,11.3c0,0-15.8-25-21.9-26.5c0,0-11.3-11.4-27.2-18.2l-0.8-0.8l-125.9,125.2
					l-27.9-28.1L776.3,1105l0.8-0.8c0,0-8.3-23.5-45.3-45.5l-0.7-5.3l8.3-8.3l6.1-1.5c0,0,6,19.7,42.2,39.4l3.8,5.3
					c0,0,15.9,0.8,18.2-18.1l408-405.7C1217.6,664.6,1269.2,614.8,1310,602.8z"/>
			</g>
			<g>
				<circle class="st5" cx="665.5" cy="1241.6" r="20.3"/>
			</g>
		</g>
		<g>
			<g>
				<path class="st5" d="M987.9,1551.7c0,0-31.1-56.4-25-169.7L973,634.6c0,0,12.4-15.6,0.4-31.6c0,0-34.8-6.2-47-6.4
					c-12.1-0.2-39.6,6.6-39.6,6.6l-9-7.3l0.3-21.5c0,0,40.9,9.2,48.5,5c0,0,22.8,0.3,45.7-8l1.5,0l3.2-238.1l56.2,0.8l-3.2,235.3
					l0,1.4c0,0,31.7,14.8,91.1,1.2l6,4.4l-0.2,15.8l-4.7,7.1c0,0-25.6-13.3-82,1.8l-9.1-1.6c0,0-16.9,14.1-0.5,34.4l-10.5,771.8
					C1020.2,1405.7,1017.4,1501.8,987.9,1551.7z"/>
			</g>
			<g>
				
					<ellipse transform="matrix(1.363927e-02 -0.9999 0.9999 1.363927e-02 658.6243 1336.5153)" class="st5" cx="1006.7" cy="334.4" rx="27.3" ry="28.8"/>
			</g>
		</g>
		<g>
			<g>
				<path class="st5" d="M677.2,592.4c0,0,45.3,13.7,102.6,75.9l392.9,395.1c0,0,2.2,14.4,16.6,16.7c0,0,20.5-14.3,26.5-20.3
					c6.1-6,15.9-23.4,15.9-23.4l8.3-0.7l11.3,11.4c0,0-25,15.8-26.5,21.9c0,0-11.4,11.3-18.2,27.2l-0.8,0.8l125.2,125.9l-28.1,27.9
					l-123.7-124.4l-0.8-0.8c0,0-23.5,8.3-45.5,45.3l-5.3,0.7l-8.3-8.3l-1.5-6.1c0,0,19.7-6,39.4-42.2l5.3-3.8
					c0,0,0.8-15.9-18.1-18.2L739,684.8C739,684.8,689.2,633.2,677.2,592.4z"/>
			</g>
			<g>
				<circle class="st5" cx="1316" cy="1236.9" r="20.3"/>
			</g>
		</g>
	</g>
</g>
</svg>
