<?xml version="1.0" encoding="utf-8"?>
<!-- Generator: Adobe Illustrator 22.1.0, SVG Export Plug-In . SVG Version: 6.00 Build 0)  -->
<svg version="1.1" xmlns="http://www.w3.org/2000/svg" xmlns:xlink="http://www.w3.org/1999/xlink" x="0px" y="0px"
	 viewBox="0 0 500 500" style="enable-background:new 0 0 500 500;" xml:space="preserve">
<style type="text/css">
	.st0{fill:#E4AD7B;}
	.st1{opacity:0.21;}
	.st2{fill:#757575;}
	.st3{fill:#FFFFFF;}
</style>
<g id="Layer_3">
</g>
<g id="Layer_7">
</g>
<g id="Layer_6">
</g>
<g id="Layer_2">
</g>
<g id="Layer_4">
</g>
<g id="Layer_5">
	<g>
		<g>
			<path class="st0" d="M95.1,169.7L86.5,194l4.4,29.8l3.3,26.5c0,0,18.7,42,33.1,25.4c0,0-6.6,34.2-3.3,49.7s19.8,45.3,22,51.9
				c2.2,6.6,67.2,59.6,67.2,59.6s22,11,54,3.3l43-36.4l36.4-59.6l7.7-49.7c0,0,23.7,21,17.4-18.8s8-138,8-138s-172-9.9-174.2-9.9
				C203.4,127.7,95.1,169.7,95.1,169.7z"/>
		</g>
		<g class="st1">
			<path class="st2" d="M264.3,252.5v23.2v18.8c0,0,22.1,0,23.2,21c1.1,21,15.5-6.6,15.5-6.6l-15.5-23.2l1.1-16.6l21,9.9l11,23.2
				l16.6,21l11.5,8.2l6.2-39.1l15.4-36.1l12.2-44.5l-92.6,14.2L264.3,252.5z"/>
		</g>
		<g>
			<g>
				<path d="M189.8,314.9c0.1,0.4-1.8,1.2-4.1,3.6c-1.2,1.1-2.4,2.7-3.8,4.4c-1.3,1.8-2.9,3.8-4.3,5.9c-1.4,2.1-2.3,4.2-2.6,6.2
					c-0.3,1.9,0.2,3.8,0.9,5.1c0.7,1.4,1.6,2.2,2.4,2.7c0.7,0.5,1.3,0.7,1.2,0.9c0,0.2-0.6,0.3-1.6,0.1c-1-0.3-2.5-1.1-3.6-2.7
					c-1.1-1.6-1.9-3.8-1.7-6.4c0.2-2.6,1.3-5.1,2.8-7.4c1.5-2.3,3.1-4.2,4.6-6c1.5-1.8,3.1-3.3,4.5-4.3c1.5-1.1,2.8-1.7,3.8-2
					C189.1,314.7,189.7,314.8,189.8,314.9z"/>
			</g>
		</g>
		<g>
			<g>
				<path d="M311.9,330.9c0.3-0.1,1.2,1.3,2,3.7c0.8,2.5,1.3,6.1,1,10c-0.3,4-1.5,7.4-2.6,9.7c-1.2,2.3-2.2,3.5-2.6,3.4
					c-0.7-0.4,1.9-6,2.4-13.3C312.7,337.1,311.1,331.2,311.9,330.9z"/>
			</g>
		</g>
		<g>
			<g>
				<path d="M167.2,349.1c-0.4,0.1-1-0.9-1.5-2.5c-0.5-1.7-1.1-4-1-6.8c0.1-1.4,0.3-2.7,0.7-3.9c0.4-1.2,0.9-2.2,1.6-2.9
					c1.2-1.5,2.4-1.9,2.6-1.6c0.3,0.3-0.3,1.2-0.9,2.6c-0.3,0.7-0.6,1.6-0.8,2.6c-0.2,1-0.3,2.1-0.4,3.3c-0.1,2.4,0.1,4.7,0.2,6.4
					C167.7,347.9,167.6,349,167.2,349.1z"/>
			</g>
		</g>
		<g>
			<g>
				<path d="M316.7,365.9c-0.7-0.2-0.5-3.5,1.3-7.1c1.7-3.6,4.2-5.8,4.8-5.4c0.6,0.5-0.7,3.3-2.3,6.6
					C318.9,363.4,317.5,366.1,316.7,365.9z"/>
			</g>
		</g>
		<g>
			<g>
				<path d="M215.7,341.5c0.3-0.3,3.3,3,9.1,7.1c5.7,4.1,14.6,8.7,25.2,10.4c10.6,1.7,20.4,0.2,27.2-1.9c6.8-2,10.7-4.3,10.9-3.9
					c0.2,0.2-3.4,3.1-10.3,5.7c-3.4,1.3-7.7,2.4-12.5,3c-4.8,0.6-10.2,0.6-15.8-0.3c-5.5-0.9-10.7-2.6-15-4.7
					c-4.4-2.1-8-4.5-10.9-6.8C218,345.5,215.5,341.6,215.7,341.5z"/>
			</g>
		</g>
		<g>
			<path d="M356.6,279c0,0,4.4-9.9,6.6-37.5l5.5-19.9l-5.5,9.9c0,0-8.8-14.4,0-18.8l-12.1,7.7c0,0,3.3-18.8,8.8-18.8l-8.8-8.8
				c0,0-9.9,4.4-4.4,13.3c0,0-16.5-14.4-14.3-17.7c2.2-3.3-8.8,4.4,0,17.7c0,0-25.4-2.2-35.3-32c0,0-8.8,2.2-5.5,12.1
				c0,0-13.2-7.7-7.7-12.1c5.5-4.4-17.6,11-8.8,25.4c0,0-29.8-24.3-17.6-28.7c0,0-29.8,15.5-16.5,30.9c0,0-38.6-18.8-27.6-27.6
				c0,0-11,35.3-20.9,28.7l-6.6-22.1c0,0,1.1,16.6-4.4,21c0,0-17.6-6.6-17.6-16.6c0,0-12.1,21-4.4,35.3l-7.7-14.4
				c0,0-9.9,25.4,0,28.7l-8.8,2.2v17.7h-16.5l-4.4-14.4l-3.3,7.7l-4.4-11c0,0-6.6,6.6-4.4,15.5c0,0-13.2-21-7.7-19.9
				c5.5,1.1-4.4-26.5-4.4-26.5v-15.5L94.2,162v-18.8l6.6-21l3.3-19.9l9.9-13.3l23.2-19.9l32-17.7h34.2H243h61.7l51.8,9.9l23.1,9.9
				l18.7,21l6.6,38.6l4.4,45.3l-4.4,26.5l-11,22.1l-7.7,15.5l-5.5,12.1v13.3L368.7,279H356.6z"/>
			<path d="M369,279.6h-13.2l0.3-0.8c0-0.1,4.4-10.2,6.6-37.4l4.3-15.5l-3.7,6.7l-0.5-0.8c-0.2-0.4-5.4-8.9-3.6-15
				c0.1-0.4,0.2-0.7,0.4-1.1l-9.2,5.8l0.2-1.2c0.3-1.8,3.1-17,8.2-19l-7.8-7.8c-1,0.5-4.2,2.4-5.1,5.6c-0.6,2.1-0.2,4.3,1.3,6.7
				l1.9,3.1l-2.8-2.4c-2.6-2.3-14.6-12.9-14.7-17.4c-0.5,0.7-1.1,1.7-1.6,3c-1,2.9-1.3,7.6,2.8,13.6l0.6,1l-1.1-0.1
				c-0.3,0-25.5-2.6-35.6-31.9c-1,0.4-3.2,1.4-4.5,3.7c-1.1,2-1.2,4.6-0.2,7.6l0.5,1.4l-1.3-0.7c-0.4-0.2-9-5.3-9.3-9.8
				c0-0.2,0-0.4,0-0.5c-2.7,2.7-6.5,7.2-7.9,12.3c-1,3.8-0.5,7.4,1.4,10.6l1.7,2.8l-2.5-2.1c-0.9-0.7-22.1-18.1-20.7-26.2
				c0-0.1,0-0.2,0.1-0.3c-5.2,3.3-14.3,10.1-15.8,17.8c-0.7,3.6,0.3,7,3,10.1l1.7,2l-2.4-1.2c-1.1-0.5-24.5-12-29.1-21.4
				c-3.1,8.1-8.8,20.9-14.8,23.1c-1.6,0.6-3.2,0.4-4.7-0.6l-0.2-0.1l-5.5-18.4c0,5.3-0.8,14.2-4.7,17.3l-0.2,0.2l-0.3-0.1
				c-0.7-0.3-15.9-6.1-17.8-15.2c-2.6,5.1-9.8,21.5-3.6,33.2l-1,0.5l-7.1-13.3c-1.4,4-5.9,17.7-3,24c0.7,1.4,1.7,2.4,3,2.8l1.8,0.6
				l-10.2,2.6v17.8h-17.5l-4.1-13.3l-3.2,7.6l-4.6-11.4c-1.5,1.8-5.4,7.4-3.7,14.3l0.8,3.3l-1.8-2.9c-1.8-2.9-10.8-17.4-8.8-20.2
				c0.2-0.3,0.7-0.7,1.7-0.5c0.3,0.1,0.5,0,0.6-0.2c1.8-2.1-2.5-16.9-5.6-25.6l0-0.2v-15.5L93.7,162l0-18.9l6.6-21.1l3.3-19.9
				l10.1-13.4l23.2-19.9L169,51h135.7l52,10l23.3,10l0.1,0.1L399,92.2l6.6,38.8l4.4,45.4l-4.5,26.7l-18.7,37.5l-5.5,12V266
				L369,279.6z M357.4,278.5h11.1l11.8-12.9l0-13.3l5.5-12.1l18.7-37.5l4.4-26.3l-4.4-45.2L398,92.7l-18.6-20.8l-23-9.9l-51.8-9.9
				l-135.3,0l-31.8,17.6l-23.1,19.8l-9.8,13.1l-3.3,19.7l-6.6,21V162l3.3,28.6l0,15.4c1,2.8,8.2,23.3,5.4,26.6
				c-0.3,0.3-0.8,0.7-1.6,0.5c-0.3-0.1-0.5,0-0.6,0.1c-0.9,1.3,2.9,9.1,7.4,16.6c-0.5-7.6,4.7-13,5-13.2l0.6-0.6l4.2,10.6l3.4-7.9
				l4.7,15.4h15.6v-17.5l7.8-1.9c-1-0.6-1.7-1.5-2.3-2.7c-3.7-7.8,3.1-25.3,3.4-26l0.4-1.1l5.1,9.5c-2.4-13.4,6.2-28.7,6.6-29.4
				l1-1.8v2.1c0,8.7,14.7,15,17,15.9c5-4.5,4-20.1,4-20.3l-0.3-4.9l8,26.6c1.1,0.7,2.3,0.8,3.5,0.4c5.9-2.1,11.7-15.9,14.6-23.6
				c-0.1-0.3-0.1-0.5-0.1-0.8c-0.2-1.8,0.5-3.4,2.2-4.8l1.4-1.1l-0.5,1.7c-0.1,0.3-0.7,2.2-1.7,5c2.3,7.5,20.6,17.6,26.9,20.9
				c-1.9-2.9-2.5-6-1.9-9.1c1.8-9.4,13.7-17.1,18.3-19.7c0.5-0.4,1.1-0.7,1.8-1l0.4,1c0,0-0.6,0.3-1.6,0.9c-0.5,0.5-0.8,1-0.9,1.7
				c-1,6.1,12.9,18.9,18.3,23.5c-4.2-11.1,8-22.5,10.9-24.4c0.5-0.4,0.8-0.1,0.9,0c0.4,0.5,0,0.8-1,1.5c-0.8,0.7-1.2,1.4-1.1,2.3
				c0.2,2.8,4.8,6.4,7.6,8.2c-0.7-2.7-0.4-5.1,0.7-7.1c1.8-3.4,5.5-4.3,5.7-4.3l0.5-0.1l0.2,0.5c8.5,25.5,28.6,30.6,33.6,31.5
				c-5.6-9.3-1.7-16,0.3-17.8c0.6-0.5,1.1-0.6,1.4-0.3c0.5,0.4,0,1.2-0.2,1.5c-1.2,1.8,5.8,9.4,12.2,15.1c-0.6-1.8-0.7-3.5-0.2-5.1
				c1.3-4.2,5.9-6.3,6.1-6.4l0.3-0.2l10,10h-1.3c-3.8,0-6.9,11.3-8,17.1l9.6-6.1c0.4-0.3,0.9-0.7,1.5-0.9l0.5,1l-1.3,0.9
				c-1,0.8-1.7,1.8-2,3.1c-1.3,4.6,1.8,11,3,13.2l7.3-13.2l-6.8,24.4C361.9,265,358.4,275.7,357.4,278.5z"/>
		</g>
		<g>
			<path class="st3" d="M334,246.5c0,0-16.5-25.4-44.1,4.4C289.9,250.9,316.3,259.7,334,246.5z"/>
		</g>
		<g>
			<path class="st3" d="M233.7,245.4c0,0-5.5-29.8-40.8-14.4C192.9,231,192.9,238.7,233.7,245.4z"/>
		</g>
		<g>
			<ellipse cx="311.9" cy="245.4" rx="8.8" ry="8.8"/>
		</g>
		<g>
			<ellipse cx="216" cy="235.4" rx="8.8" ry="8.8"/>
		</g>
		<g>
			<g>
				<path d="M335.3,248.6c0.2,0.3-2.1,2-6.2,4c-1,0.5-2.2,1-3.4,1.4c-1.2,0.5-2.6,0.9-4.1,1.4c-2.9,0.8-6.2,1.5-9.6,1.9
					c-3.5,0.3-6.8,0.4-9.8,0.2c-1.5-0.1-2.9-0.2-4.2-0.5c-1.3-0.2-2.5-0.4-3.7-0.7c-4.4-1-7-2.3-6.9-2.6c0.1-0.4,2.8,0.2,7.2,0.7
					c1.1,0.1,2.3,0.3,3.6,0.3c1.3,0.1,2.7,0.1,4.1,0.2c2.9,0,6.1,0,9.4-0.4c3.3-0.4,6.4-0.9,9.3-1.6c1.4-0.4,2.7-0.7,4-1.1
					c1.2-0.3,2.4-0.7,3.4-1.1C332.6,249.3,335.1,248.2,335.3,248.6z"/>
			</g>
		</g>
		<g>
			<g>
				<path d="M234.2,246.1c-0.1,0.7-11.3-0.8-24.7-4.6c-13.4-3.8-23.6-8.5-23.4-9.2c0.3-0.7,10.9,2.8,24.1,6.6
					C223.5,242.7,234.3,245.3,234.2,246.1z"/>
			</g>
		</g>
		<g>
			<g>
				<path d="M336.8,243.9c-0.2,0.4-3.2-1.1-8.2-3.1c-2.5-1-5.5-2-8.9-3c-3.4-1-7.1-1.9-10.7-1c-1.8,0.5-3.5,1.4-5.2,2.3
					c-1.7,1-3.3,1.9-4.8,2.8c-3.1,1.8-5.9,3.4-8.3,4.6c-4.8,2.6-7.8,4-8,3.7c-0.2-0.3,2.5-2.3,7-5.3c2.3-1.5,5-3.2,8-5.2
					c1.5-0.9,3.1-1.9,4.8-3c1.7-1,3.6-2,5.8-2.6c2.2-0.6,4.5-0.6,6.5-0.2c2,0.3,3.9,0.9,5.6,1.5c3.5,1.1,6.5,2.4,8.9,3.6
					C334.3,241.5,337,243.6,336.8,243.9z"/>
			</g>
		</g>
		<g>
			<path d="M287.1,226v6.6c0,0,51.8-8.8,63.9,0C351.1,232.7,358.8,207.3,287.1,226z"/>
			<path d="M351.4,233.6l-0.6-0.5c-11.8-8.6-63,0-63.5,0.1l-0.6,0.1v-7.7l0.4-0.1c42-11,57-6.9,62.2-1.4c3.8,4,2.5,8.6,2.4,8.8
				L351.4,233.6z M287.7,226.5v5.5c6.2-1,50.4-8,63-0.3c0.2-1.4,0.2-4.3-2.3-6.9C343.4,219.6,328.8,215.7,287.7,226.5z"/>
		</g>
		<g>
			<path d="M247.2,214.8l-0.8,6.6c0,0-53.2-15.6-67-8.5C179.3,212.9,174.4,186.7,247.2,214.8z"/>
			<path d="M246.8,222.1l-0.6-0.2c-0.5-0.2-53.1-15.5-66.6-8.5l-0.7,0.3l-0.1-0.7c0-0.2-0.8-4.7,3.3-8.1c5.9-4.9,22.1-7.3,65.3,9.4
				l0.4,0.2L246.8,222.1z M190.6,210.5c19.1,0,50.2,8.8,55.3,10.2l0.7-5.5c-42.4-16.3-58.1-14.2-63.8-9.5c-2.7,2.3-3,5-3,6.3
				C182.5,210.9,186.2,210.5,190.6,210.5z"/>
		</g>
		<g>
			<g>
				<path d="M188.3,231.1c-0.1-0.2,0.6-0.8,2-1.8c1.4-1,3.5-2.3,6.2-3.8c2.7-1.5,6.1-3,10.1-4c4-1,8.8-1.3,13.6,0.1
					c2.4,0.7,4.6,1.8,6.5,3.2c1.9,1.4,3.4,2.9,4.8,4.2c2.9,2.6,5.9,4.6,8.4,6c5.2,2.9,8.8,3.9,8.7,4.4c-0.1,0.3-3.9,0-9.6-2.6
					c-2.8-1.3-6-3.2-9.2-5.8c-1.6-1.3-3.1-2.7-4.8-3.9c-1.7-1.2-3.5-2.1-5.6-2.7c-4.2-1.2-8.5-1-12.3-0.2c-3.8,0.8-7.1,2.1-9.8,3.3
					C191.9,229.7,188.5,231.4,188.3,231.1z"/>
			</g>
		</g>
		<g>
			<g>
				<path d="M115.6,253.8c-0.7-0.3-0.7-2.1,0.1-4c0.8-1.9,2-3.3,2.7-3c0.7,0.3,0.7,2.1-0.1,4S116.3,254.1,115.6,253.8z"/>
			</g>
		</g>
	</g>
</g>
</svg>
