<?xml version="1.0" encoding="utf-8"?>
<!-- Generator: Adobe Illustrator 22.1.0, SVG Export Plug-In . SVG Version: 6.00 Build 0)  -->
<svg version="1.1" xmlns="http://www.w3.org/2000/svg" xmlns:xlink="http://www.w3.org/1999/xlink" x="0px" y="0px"
	 viewBox="0 0 500 500" style="enable-background:new 0 0 500 500;" xml:space="preserve">
<style type="text/css">
	.st0{fill:#E4AD7B;}
	.st1{opacity:0.21;fill:#757575;}
	.st2{fill:#140900;}
	.st3{fill:#1C0E03;}
	.st4{fill:#FFFFFF;}
</style>
<g id="Layer_3">
</g>
<g id="Layer_4">
</g>
<g id="Layer_2">
</g>
<g id="Layer_5">
</g>
<g id="Layer_6">
</g>
<g id="Layer_7">
	<g>
		<path class="st0" d="M427.4,259l-9.2,87.3l-72.1,78.1l-73.6,6.4l-81.4-38.4l-84.6-75.6l-26.6-57.6c0,0,100.2-120.4,104.9-123
			c4.7-2.6,216.2,6.4,216.2,6.4l26.6,55.1L427.4,259z"/>
		<path class="st1" d="M367,168l-39,30l-12,38l3,25c0,0,29,20,9,38s17,21,17,21l6,5l10-35c0,0-6-27-10-26s18-3,18-3l8,14v26
			c0,0,13,18,14,19s20,16,20,16l10-28l2.9-35.6L433,236l-9-58l-29-39L367,168z"/>
		<path class="st2" d="M423.7,263.7c0,0-11,102.5-79.9,119.1l-20.4-17.9v-23.1H314v24.3L289,382.8c0,0-139.5-15.1-148.1-123.5
			l-28.9,0.5l7.8,15.4l7.4,4l12.9,57.5l9.4,19.2c0,0,7.8,20.5,9.4,23.1c1.6,2.6,15.7,24.3,17.2,25.6c1.6,1.3,31.3,16.7,31.3,16.7
			s36,17.9,39.2,20.5c3.1,2.6,31.3,10.2,39.2,10.2c7.8,0,53.3-2.6,53.3-2.6l42.3-32l32.9-34.6l9.4-41V263.7z"/>
		<path class="st3" d="M262.7,320.6l-2.7,15.4h12.5l29.8-24.3l6.3-21.8h-6.3l-14.1,10.2c0,0-21.9,12.8-28.2,24.3"/>
		<path class="st3" d="M358.4,320l2.6,15.4h-12.3l-29.3-24.3l-6.2-21.8h6.2l13.9,10.2c0,0,21.6,12.8,27.7,24.3"/>
		<path class="st3" d="M331.3,203.5c0,0,20.4,2.6,23.5,0c3.1-2.6,25.1,0,25.1,0l11,5.1l12.5,7.7l1.6-6.4l-9.4-7.7
			c0,0-7.8-5.1-7.8-6.4c0-1.3-6.3-5.1-6.3-5.1h-18.8h-14.1c0,0-4.7,0-7.8,0c-3.1,0-11,2.6-11,2.6l-1.6,5.1L331.3,203.5z"/>
		<path class="st3" d="M281.1,193.3l-3.1,2.6c0,0-7.8,1.3-7.8,2.6c0,1.3-6.3,2.6-6.3,2.6s-9.4,1.3-11,1.3c-1.6,0-7.8,0-7.8,0
			s-9.4,1.3-11,1.3c-1.6,0-6.3,2.6-7.8,2.6c-1.6,0-7.8,2.6-9.4,2.6c-1.6,0-6.3,1.3-7.8,2.6c-1.6,1.3-4.7,2.6-6.3,2.6
			c-1.6,0-12.5,6.4-12.5,6.4l-6.3,5.1l6.3,1.3l17.2-2.6l9.4-3.8l9.4-2.6l11-3.8l14.1-2.6c0,0,3.1,1.3,6.3,1.3
			c3.1,0,12.5-1.3,12.5-1.3l9.4-1.3l6.3-2.6l3.1-6.4l-1.6-5.1l-4.7-2.6H281.1z"/>
		<path class="st3" d="M296,174.7c7.8-6.4-6.3-19.2-6.3-19.2c11,6.4-25.1,30.7-15.7,20.5c9.4-10.2-18.8-16.7-18.8-16.7l3.1,12.8
			l-7.8-3.8c-12.5-1.3-15.7,20.5-15.7,20.5l-11-14.1l-12.5,23.1c-3.1-16.7-21.9-9-21.9-9c12.5,5.1-14.1,32-14.1,32l1.6-20.5
			l-18.8,30.7l-9.4,15.4l-11,17.9l-6.3,17.9l-11-7.7l-17.2,17.9l6.3,12.8l15.7,15.4l12.5,1.3c0,0-4.7,6.4-1.6,7.7
			c3.1,1.3-58,6.4-58,6.4c18.8,2.6,15.7-34.6,15.7-34.6c7.8,25.6-47,9-47,9c25.1,5.1,31.3-17.9,31.3-17.9s-9.4-42.3-12.5-58.9
			C62.6,217,100.2,81.2,161.3,58.1s119-15.4,119-15.4s151.9,25.6,161.3,143.5c0,0,17.2,30.7-17.2,76.9l-1.6-46.1l-11-21.8l-7.8-34.6
			l1.6,28.2l-12.5-29.5v25.6l-15.7-25.6c0,0-9.4,15.4-3.1,29.5s-17.2-29.5-17.2-29.5s-11,20.5-3.1,25.6c7.8,5.1-17.2-21.8-17.2-21.8
			l-7.8,11.5l-11-15.4l-11,20.5l-1.6-21.8L296,174.7z"/>
		<path class="st4" d="M383,226.6c0,0-21.9-23.1-48.6,0C334.4,226.6,354.8,236.8,383,226.6z"/>
		<path class="st4" d="M218.5,231.7c0,0,21.9-23.1,48.6,0C267,231.7,246.7,241.9,218.5,231.7z"/>
		<ellipse cx="359.5" cy="224" rx="9.4" ry="7.7"/>
		<ellipse cx="243.6" cy="229.1" rx="9.4" ry="7.7"/>
		<g>
			<path d="M385,225.7c0.2,0.4-2.4,1.8-7,3.4c-4.6,1.6-11.2,3.3-18.8,4.1c-3.8,0.4-7.4,0.6-10.8,0.5c-3.4-0.1-6.4-0.5-8.9-1.2
				c-2.5-0.7-4.3-1.7-5.3-2.6c-1-0.8-1.4-1.5-1.2-1.6c0.4-0.4,2.7,1.3,7.3,2c2.3,0.4,5,0.5,8.2,0.4c3.1-0.1,6.6-0.4,10.3-0.8
				C373.2,228.5,384.5,224.8,385,225.7z"/>
		</g>
		<g>
			<path d="M391.4,224.5c-0.2,0.4-4.1-0.7-10.1-2.9c-3-1.1-6.6-2.4-10.5-3.9c-1.9-0.7-4-1.5-6.1-2c-2.1-0.5-4.4-0.8-6.7-1
				c-4.7-0.2-9.4,0.2-13.6,0.8c-4.2,0.6-7.9,1.4-11,2.1c-6.2,1.6-9.9,3-10.1,2.5c-0.2-0.3,3-2.5,9.2-4.7c3.1-1.1,6.9-2.1,11.2-2.9
				c4.4-0.7,9.2-1.3,14.5-1.1c2.6,0.1,5.2,0.5,7.6,1.2c2.4,0.6,4.5,1.5,6.5,2.3c3.9,1.7,7.3,3.2,10.1,4.5
				C388.3,222.3,391.7,224.1,391.4,224.5z"/>
		</g>
		<g>
			<path d="M270.3,225.3c-0.3,0.4-3.6-0.6-9.1-1.4c-5.5-0.9-13.3-1.2-22-1.3c-17.8-1.5-27.5,8.9-28.4,7.7c-0.2-0.2,0.3-0.8,1.3-1.8
				c1.1-1,2.7-2.4,5-4c2.3-1.5,5.5-3.1,9.4-4c3.9-0.9,8.3-1.2,12.8-1.1c8.8,0.2,16.9,0.9,22.6,2.3
				C267.5,223.1,270.5,225,270.3,225.3z"/>
		</g>
		<g>
			<path d="M268.6,231.3c0.2,0.1-0.2,0.8-1.4,1.6c-1.2,0.8-3.2,1.5-5.7,2.1c-4.9,1.2-11.9,2.3-19.7,2.4c-7.8,0.2-14.9-0.6-19.9-1.6
				c-5-1-7.9-2.1-7.7-2.5c0.3-0.9,12.4,1.3,27.5,0.9c7.5-0.1,14.3-0.9,19.2-1.5c2.4-0.3,4.3-0.6,5.5-1
				C267.7,231.4,268.4,231.1,268.6,231.3z"/>
		</g>
		<g>
			<path d="M335.7,240.4c0.8-0.7,6.8,2.9,14.9,6c8.1,3.2,15.3,4.7,15.1,5.6c-0.1,0.4-2.1,0.6-5.2,0.2c-3.1-0.4-7.3-1.3-11.6-3
				c-4.3-1.7-7.9-3.7-10.2-5.5C336.5,242,335.4,240.7,335.7,240.4z"/>
		</g>
		<g>
			<path d="M261.9,249.5c0.1,0.9-10.6,2.2-23.8,2.2c-13.2,0.1-23.9-1.1-23.9-1.9c0.1-0.9,10.7-1.2,23.9-1.3
				C251.2,248.5,261.8,248.6,261.9,249.5z"/>
		</g>
		<g>
			<path d="M330.2,324.6c-0.3,0.9-8.4-0.3-18.4-1c-10-0.7-18.2-0.6-18.3-1.5c-0.1-0.8,8.2-2.4,18.7-1.7
				C322.6,321.1,330.5,323.8,330.2,324.6z"/>
		</g>
		<path class="st2" d="M421.2,297c0,0,10.4-29.5,11.9-61.5c1.6-32-8.9,18.8-8.9,18.8L421.2,297z"/>
	</g>
</g>
<g id="Layer_8">
</g>
</svg>
