<?xml version="1.0" encoding="utf-8"?>
<!-- Generator: Adobe Illustrator 22.1.0, SVG Export Plug-In . SVG Version: 6.00 Build 0)  -->
<svg version="1.1" xmlns="http://www.w3.org/2000/svg" xmlns:xlink="http://www.w3.org/1999/xlink" x="0px" y="0px"
	 viewBox="0 0 500 500" style="enable-background:new 0 0 500 500;" xml:space="preserve">
<style type="text/css">
	.st0{fill:#E4AD7B;}
	.st1{opacity:0.21;}
	.st2{fill:#757575;}
	.st3{fill:#CC5605;}
	.st4{fill:#B54B02;}
	.st5{fill:#FFFFFF;}
</style>
<g id="Layer_2">
</g>
<g id="Layer_3">
	<g id="Layer_6">
	</g>
</g>
<g id="Layer_4">
</g>
<g id="Layer_5">
	<g>
		<g>
			<path class="st0" d="M136.4,129.1c0,0,1,99,0,99s21.9,86.5,22.9,87.6c1,1,28.1,8.3,28.1,8.3l46.9-13.6l59.4,19.8l32.3,10.4
				l34.4-33.4l-9.4-29.2l35.4-43.8V176l-30.2-80.3c0,0-84.4-29.2-88.6-29.2S167.7,82.2,167.7,82.2L136.4,129.1z"/>
			<path d="M326.3,341.3l-32.6-10.5L234.4,311l-46.9,13.5l-0.1,0c-6.4-1.7-27.3-7.4-28.4-8.5c-0.9-0.9-11.1-39.4-12.2-43.8
				c-5.2-19.6-11.3-43.3-10.8-44.3l0.1-0.2c0.7-4.5,0.2-72.4-0.1-98.6l0-0.2l31.5-47.2l0.2,0c3.9-0.6,96-15.6,100.1-15.6
				c4.2,0,85.3,28,88.8,29.2l0.2,0.1l0.1,0.2l30.3,80.3v58.7l-35.4,43.7l9.4,29.2L326.3,341.3z M234.4,309.9l0.2,0.1l59.4,19.8
				l32,10.3l33.9-32.9l-9.4-29.1l35.5-43.9v-58.1L356,96.2c-29.2-10.1-85-29.1-88.2-29.1c-4,0-94.6,14.7-99.8,15.6L137,129.3
				c0.4,36.2,0.9,96.5-0.1,99.1c0-0.1,0.1-0.1,0.1-0.2c-0.1,2.4,21.2,83.7,22.8,87.1c1.4,0.9,17.6,5.4,27.7,8.2L234.4,309.9z
				 M136.5,228.6L136.5,228.6C136.5,228.6,136.5,228.6,136.5,228.6z M136.4,227.6C136.4,227.6,136.4,227.6,136.4,227.6L136.4,227.6z
				"/>
		</g>
		<g class="st1">
			<path class="st2" d="M345.8,95l-75.4,86.6l-8.3,5.9l-2.4,14.5v14.5l2.4,14.5l3.6,13.2v10.6c0,0,20.6,10.8-0.6,30.5
				c-21.2,19.7,12.7,17.1,12.7,17.1l21.9-26.4c0,0-3.6-35.7-13.4-35.7c-9.7,0,17-6.6,17-6.6l10.9,15.9l15.8-5.3l8.2,53.6l17.3,32.3
				l24.3-239.2L345.8,95z"/>
		</g>
		<g>
			<path class="st3" d="M115.1,195.3h36.5c0,0-15.6,92.8,40.7,115.7c0,0,25-19.8,41.7-16.7c0,0,13.6,8.3,21.9,0
				c0,0,20.8-2.1,59.4,22.9c0,0,41.7-21.9,24-141.8l34.4-3.1l6.3,33.4L367.3,263l-2.1,5.2l1,33.4l4.2,18.8l-5.2,16.7l-6.3,12.5
				l-7.3,9.4c0,0-2.1,11.5-4.2,17.7c-2.1,6.3-3.1,7.3-5.2,14.6s-6.3,18.8-6.3,18.8s-6.3,4.2-10.4,10.4c-4.2,6.3-16.7,16.7-21.9,20.8
				c-5.2,4.2-14.6,8.3-19.8,11.5c-5.2,3.1-20.8,6.3-24,6.3c-3.1,0-18.8,0-18.8,0s-28.1-1-30.2-1c-2.1,0-13.6-3.1-21.9-3.1
				s-16.7-1-25-5.2s-19.8-9.4-22.9-13.6c-3.1-4.2-14.6-34.4-14.6-37.5c0-3.1-1-22.9-1-22.9s-6.3-28.1-4.2-36.5
				c2.1-8.3,4.2-24,4.2-24v-27.1l-10.4-14.6l5.2-43.8L115.1,195.3z"/>
		</g>
		<g>
			<path class="st4" d="M276.1,119.7c0,0,37.5-18.8,49,6.3l3.1,9.4l2.1,19.8v11.5l7.3,14.6h13.6l9.4-3.1l13.6,7.3l-4.2,22.9
				l-3.1,11.5l-1,17.7l-5.2,21.9l3.1,14.6c0,0,11.5,14.6,22.9,4.2c0,0-14.6-2.1-12.5-15.6c0,0,9.4,11.5,12.5,3.1
				c0,0-14.6-15.6-5.2-17.7l5.2,8.3c0,0,4.2-13.6,0-14.6s17.7,9.4,17.7,9.4s5.2-14.6-8.3-16.7c-13.6-2.1,9.4-5.2,9.4-5.2v-19.8
				l-7.3-11.5l7.3-11.5v-16.7c0,0-2.1-12.5,0-13.6s-6.3-13.6-6.3-13.6v-12.5l-9.4-28.1L371,87.4c0,0-2.1-18.8-6.3-20.8
				c-4.2-2.1-24-14.6-29.2-15.6c-5.2-1-36.5-6.3-36.5-6.3s-71.9-4.2-75-4.2c-3.1,0-53.2,4.2-56.3,4.2c-3.1,0-27.1,10.4-27.1,10.4
				l-21.9,10.4l-11.5,38.6c0,0,0,18.8,0,20.8c0,2.1-10.4,20.8-11.5,25c-1,4.2-1,14.6,0,16.7s12.5,15.6,12.5,15.6l-9.4,15.6
				c0,0-10.4,13.6-10.4,20.8c0,7.3,7.3,19.8,9.4,22.9c2.1,3.1,11.5,9.4,11.5,9.4s-5.2,2.1-8.3,8.3c0,0,15.6-4.2,16.7,0
				s-12.5,12.5-12.5,12.5s20.8-3.1,25-9.4c4.2-6.3-8.3,19.8-8.3,19.8l16.7-19.8l-8.3-25l-4.2-16.7l-5.2-21.9l17.7-3.1H151l6.3-11.5
				c0,0,0-15.6-1-17.7s-2.1-15.6-2.1-15.6l3.1-13.6c0,0,17.7-33.4,52.1-16.7S276.1,119.7,276.1,119.7z"/>
		</g>
		<g>
			<path class="st5" d="M190.6,225c0,0,12.5-15.6,30.2,0C220.9,225,207.3,234.4,190.6,225z"/>
		</g>
		<g>
			<path class="st5" d="M275.1,225c0,0,12.5-15.6,30.2,0C305.3,225,291.8,234.4,275.1,225z"/>
		</g>
		<g>
			<circle cx="205.8" cy="223.4" r="7.3"/>
		</g>
		<g>
			<circle cx="290.2" cy="223.4" r="7.3"/>
		</g>
		<g>
			<polygon class="st4" points="233.9,213 194.3,198.4 172.4,198.4 183.9,205.7 			"/>
		</g>
		<g>
			<polygon class="st4" points="264.1,213 303.1,198.4 324.6,198.4 313.3,205.7 			"/>
		</g>
		<g>
			<g>
				<path d="M189.7,223.7c-0.2-0.3,1.2-1.9,4.2-3.6c2.9-1.7,7.5-3.5,12.8-3.8c1.3-0.1,2.6-0.1,3.8,0c1.2,0.1,2.5,0.3,3.7,0.8
					c1.2,0.5,2.1,1.1,2.9,1.7c0.8,0.6,1.5,1.1,2.2,1.6c2.6,2,4.2,3.4,4,3.7c-0.2,0.3-2.1-0.6-5-2.2c-1.5-0.8-3.1-2-4.9-2.6
					c-1.7-0.6-4.2-0.5-6.5-0.4c-4.9,0.3-9.1,1.6-12.1,2.8C191.7,222.9,190,224,189.7,223.7z"/>
			</g>
		</g>
		<g>
			<g>
				<path d="M189.7,226.1c0.1-0.4,2-0.1,4.9,0.3c2.9,0.5,6.9,1.1,11.3,1.2c4.4,0.1,8.3-0.5,11.1-1.2c2.8-0.7,4.5-1.4,4.7-1
					c0.2,0.3-1.3,1.6-4.1,2.8c-2.8,1.2-7.1,2.1-11.8,2c-4.7-0.1-8.8-1.1-11.7-2C191.3,227.3,189.7,226.5,189.7,226.1z"/>
			</g>
		</g>
		<g>
			<g>
				<path d="M182.2,232.4c0-0.2,0.7-0.3,1.8-0.3c1.2,0,2.9,0.2,4.9,0.7c2,0.5,4.3,1.2,6.9,1.8c2.5,0.6,5.4,1.1,8.4,1.2
					c6,0.3,11.4-0.8,15.3-1.9c3.8-1.1,6.1-2.2,6.3-1.8c0.2,0.3-1.8,2-5.7,3.6c-3.8,1.6-9.6,3.1-16,2.8c-3.2-0.1-6.2-0.7-8.9-1.5
					c-2.6-0.8-4.9-1.7-6.8-2.4C184.7,233.2,182.2,232.8,182.2,232.4z"/>
			</g>
		</g>
		<g>
			<g>
				<path d="M268.7,231c0.1-0.3,2.6,0.2,6.5,1.1c2,0.5,4.3,1,6.9,1.5c2.6,0.5,5.4,1.1,8.4,1.3c3,0.2,5.8,0.1,8.3-0.3
					c2.5-0.5,4.7-1.3,6.4-2.2c3.5-1.8,5-3.8,5.4-3.5c0.1,0.1-0.1,0.7-0.8,1.7c-0.7,1-1.9,2.2-3.7,3.4c-1.8,1.2-4.1,2.3-6.8,2.9
					c-2.7,0.7-5.9,0.8-9.1,0.6c-3.2-0.3-6.2-0.9-8.8-1.6c-2.6-0.7-5-1.4-6.9-2.1C270.8,232.5,268.6,231.3,268.7,231z"/>
			</g>
		</g>
		<g>
			<g>
				<path d="M274.3,225c0.2-0.3,2,0.3,4.9,1.1c2.9,0.8,6.9,1.7,11.4,2c4.5,0.3,8.7-0.1,11.5-0.5c1.4-0.3,2.4-0.7,3.1-1.1
					c0.7-0.4,1-0.7,1.2-0.6c0.1,0.1,0.1,0.6-0.5,1.4c-0.6,0.8-1.7,1.6-3.3,2.1c-3.1,1-7.4,1.7-12.2,1.4c-4.8-0.3-9-1.6-11.9-2.8
					C275.7,226.5,274.1,225.3,274.3,225z"/>
			</g>
		</g>
		<g>
			<g>
				<path d="M274.5,223.8c-0.2,0-0.2-0.6,0.1-1.5c0.3-0.9,1.2-2.1,2.7-3.1c1.4-1,3.3-1.9,5.3-2.5c2-0.7,4.3-1.4,6.7-2
					c1.2-0.3,2.7-0.5,4.2,0c0.7,0.2,1.3,0.6,1.8,0.9c0.5,0.3,0.9,0.6,1.4,0.9c1.8,1.2,3.4,2.2,4.7,3.1c2.6,1.9,4.2,3.2,4,3.5
					c-0.2,0.3-2.1-0.4-4.9-1.9c-1.4-0.7-3.1-1.6-5-2.7c-0.9-0.5-2-1.2-2.7-1.4c-0.7-0.2-1.7-0.1-2.8,0.1c-2.3,0.6-4.5,1.3-6.6,1.8
					c-2,0.5-3.7,1.1-5.1,1.8C275.5,222,274.9,223.9,274.5,223.8z"/>
			</g>
		</g>
		<g>
			<g>
				<path d="M218.3,164.1c0.1-0.7,9.7,0.6,21.6,0.8c11.9,0.3,21.5-0.6,21.6,0.1c0.1,0.7-9.5,2.8-21.6,2.5
					C227.7,167.3,218.2,164.8,218.3,164.1z"/>
			</g>
		</g>
		<g>
			<g>
				<path d="M224.6,178.2c0.1-0.8,11.3,0,24.8-2.1c13.6-2,24-6.2,24.3-5.4c0.1,0.3-2.3,1.8-6.6,3.4c-2.1,0.8-4.7,1.7-7.7,2.5
					c-2.9,0.8-6.2,1.5-9.7,2.1c-3.5,0.5-6.8,0.8-9.8,0.9c-3,0.1-5.8,0.1-8.1-0.1C227.3,179.2,224.5,178.5,224.6,178.2z"/>
			</g>
		</g>
		<g>
			<g>
				<path d="M207.4,340.7c0.1-0.8,16.8,1,37.5,1.9c20.7,0.9,37.5,0.7,37.5,1.4c0,0.3-4.2,0.9-11,1.2c-6.8,0.3-16.2,0.4-26.6,0
					c-10.4-0.5-19.8-1.4-26.5-2.3C211.5,341.9,207.4,341,207.4,340.7z"/>
			</g>
		</g>
		<g>
			<g>
				<path d="M228,116.1c0,0.1-1.5-0.1-3.8-1.5c-1.1-0.7-2.4-1.7-3.8-3c-1.4-1.3-2.8-2.9-4.3-4.7c-2.9-3.6-6.6-7.6-11.2-11.5
					c-4.6-3.9-10-7.8-16.2-11c-6.2-3.2-12.4-5.5-18.3-7.1c-5.9-1.5-11.3-2.2-15.8-2.6c-9.2-0.6-14.9,0.2-14.9-0.3
					c0-0.2,1.4-0.5,4-0.9c1.3-0.3,2.9-0.3,4.7-0.5c1.9-0.2,4-0.1,6.3-0.1c4.7,0.2,10.3,0.7,16.3,2.2c6,1.5,12.5,3.8,18.9,7.1
					c6.4,3.3,12,7.3,16.6,11.5c4.6,4.1,8.3,8.5,11,12.2c2.8,3.7,5.2,6.5,7.2,8C226.7,115.3,228.1,115.9,228,116.1z"/>
			</g>
		</g>
		<g>
			<g>
				<path d="M239.2,101.7c-0.2,0.1-0.9-1-2.1-3c-0.3-0.5-0.6-1.1-1-1.7c-0.4-0.6-0.8-1.2-1.3-1.9c-0.9-1.4-1.9-3-3.2-4.6
					c-0.6-0.8-1.3-1.7-1.9-2.6c-0.7-0.9-1.5-1.8-2.2-2.7c-1.5-1.9-3.3-3.8-5.2-5.8c-3.9-3.9-8.4-7.9-13.5-11.5
					c-5.2-3.6-10.4-6.6-15.4-8.9c-2.5-1.1-4.9-2.2-7.2-3c-1.1-0.4-2.2-0.9-3.3-1.2c-1.1-0.3-2.1-0.7-3.1-1c-2-0.7-3.8-1-5.4-1.5
					c-0.8-0.2-1.5-0.4-2.2-0.6c-0.7-0.1-1.3-0.3-1.9-0.4c-2.3-0.5-3.5-0.8-3.5-1c0-0.2,1.3-0.2,3.7,0c0.6,0,1.2,0.1,2,0.2
					c0.7,0.1,1.5,0.2,2.3,0.4c1.7,0.3,3.6,0.6,5.6,1.1c1,0.3,2.1,0.5,3.2,0.8c1.1,0.3,2.2,0.7,3.4,1.1c2.4,0.7,4.8,1.8,7.4,2.8
					c5.1,2.3,10.6,5.3,15.9,9c5.3,3.8,9.9,7.9,13.7,12c1.9,2.1,3.7,4.1,5.1,6.1c0.8,1,1.5,1.9,2.2,2.9c0.6,1,1.3,1.9,1.8,2.8
					c1.2,1.7,2.1,3.5,2.9,4.9c0.4,0.7,0.8,1.4,1.1,2.1c0.3,0.7,0.6,1.3,0.8,1.8C239,100.4,239.4,101.6,239.2,101.7z"/>
			</g>
		</g>
		<g>
			<g>
				<path d="M264.2,95.1c-0.4,0.1-1.8-3.4-4.2-9c-1.2-2.8-2.8-6-4.9-9.3c-2.1-3.3-4.9-6.6-8.5-9.4c-3.6-2.8-7.4-5.1-10.8-7.1
					c-3.5-2.1-6.5-3.9-9.3-5.2c-5.4-2.6-9.2-2.7-9.2-3.1c0-0.2,1-0.4,2.7-0.3c1.8,0.1,4.3,0.6,7.2,1.7c2.9,1.1,6.2,2.8,9.7,4.8
					c3.5,2,7.5,4.2,11.2,7.2c3.8,3,6.8,6.6,8.9,10.1c2.1,3.6,3.5,7,4.6,9.9C263.7,91.2,264.5,95,264.2,95.1z"/>
			</g>
		</g>
		<g>
			<g>
				<path d="M283.8,98.5c-0.2-0.3,3.2-2.8,9.3-6c6.1-3.1,15-6.7,25.2-8.7c5.1-1,10.1-1.6,14.6-1.9c4.5-0.2,8.6-0.2,12.1,0.2
					c3.4,0.4,6.2,1.3,7.9,2.1c1.8,0.9,2.6,1.6,2.5,1.7c-0.2,0.4-3.9-1.7-10.6-2c-3.3-0.2-7.3,0-11.7,0.3c-4.4,0.4-9.3,1-14.3,2
					c-10,2-18.8,5.2-25,7.9C287.7,96.8,284,98.8,283.8,98.5z"/>
			</g>
		</g>
		<g>
			<g>
				<path d="M311.9,102.5c0-0.4,4.5-0.7,11.7-1.4c3.6-0.4,7.9-0.8,12.8-1.2c4.8-0.3,10.2-0.5,15.8-0.1c5.7,0.4,11,1.6,15.6,3.2
					c4.6,1.7,8.6,3.9,11.5,6.2c2.9,2.3,5,4.6,6.1,6.3c1.2,1.7,1.6,2.8,1.5,2.9c-0.2,0.1-0.9-0.8-2.3-2.2c-1.4-1.5-3.5-3.5-6.4-5.5
					c-2.9-2-6.7-3.9-11.2-5.4c-4.5-1.5-9.6-2.5-15-2.9c-5.5-0.4-10.7-0.3-15.5-0.1c-4.8,0.2-9.1,0.5-12.8,0.6
					C316.5,103.2,311.9,102.8,311.9,102.5z"/>
			</g>
		</g>
		<g>
			<g>
				<path d="M163,114.2c-0.2,0.4-2.8-0.6-7.1-1.9c-2.2-0.7-4.7-1.3-7.6-2c-2.9-0.6-6.1-1.1-9.5-1.5c-3.4-0.3-6.7-0.4-9.6-0.4
					c-3,0-5.6,0.2-7.9,0.4c-4.5,0.4-7.3,0.8-7.4,0.5c-0.1-0.3,2.6-1.4,7.1-2.3c2.3-0.5,5-0.8,8.1-1c3.1-0.1,6.4-0.1,10,0.3
					c3.5,0.4,6.8,1,9.8,1.8c3,0.8,5.6,1.7,7.7,2.6C160.7,112.3,163.1,113.9,163,114.2z"/>
			</g>
		</g>
		<g>
			<g>
				<path d="M342,146.5c-0.1-0.3,2.2-1.2,6.1-1.8c1.9-0.3,4.2-0.6,6.8-0.7c2.6-0.1,5.4,0,8.4,0.2c3,0.3,5.8,0.8,8.3,1.4
					c2.5,0.6,4.7,1.3,6.6,2c3.7,1.4,5.7,2.6,5.6,3c-0.3,0.7-9.2-2.7-20.7-3.7C351.5,145.6,342.1,147.3,342,146.5z"/>
			</g>
		</g>
	</g>
</g>
</svg>
