<?xml version="1.0" encoding="utf-8"?>
<!-- Generator: Adobe Illustrator 22.1.0, SVG Export Plug-In . SVG Version: 6.00 Build 0)  -->
<svg version="1.1" id="Layer_2" xmlns="http://www.w3.org/2000/svg" xmlns:xlink="http://www.w3.org/1999/xlink" x="0px" y="0px"
	 viewBox="0 0 500 500" style="enable-background:new 0 0 500 500;" xml:space="preserve">
<style type="text/css">
	.st0{fill:#E4AD7B;}
	.st1{opacity:0.21;fill:#757575;}
	.st2{fill:#BF4F28;}
	.st3{fill:#A56E49;}
	.st4{fill:#9B5832;}
	.st5{fill:#FFFFFF;}
</style>
<g>
	<polygon class="st0" points="116.3,188.7 137.2,336.7 196.3,406.3 271.4,410 320.6,392.6 355.1,329.2 373.5,199.9 316.9,132.7 
		116.3,161.3 	"/>
	<path class="st1" d="M269.6,325.7c0,0,7.3,1.5,7.3-12.3c0-13.8-7.5-11.3-7.5-11.3l-3.8-31.4l-3.8-15.1l19.7-9.7l31.8-11.6v-22.6
		h48.9l8.8,47.7l-20.1,69l-11.3,2.5l-16.3,8.8l-6.3-8.8l7.5-11.3l5-17.6l-6.3-7.5l-21.3-6.3l-15.1,1.3l1.3,20.1l-1.3,36.4
		L269.6,325.7z"/>
	<path class="st2" d="M162.9,335.5l45-46c0,0-38.9,50.2-45.2,51.4C156.5,342.3,162.9,335.5,162.9,335.5z"/>
	<path class="st3" d="M146.4,307.1l31.4,54l48.9-37.6c0,0,6.3,6.3,18.8-2.5h6.3c0,0,13.8,7.5,23.8,3.8l41.4,40.2l18.8-38l6.2,34.3
		l-5,10c0,0-10,69-92.9,76.5c-82.8,7.5-105.4-114.2-105.4-114.2L146.4,307.1z"/>
	<polygon class="st4" points="276.9,245.6 294.5,239.1 312,230.4 324.6,238 337.1,245.6 334.6,255.5 312,245.6 291.1,246 
		283.2,248.9 	"/>
	<path class="st4" d="M340.3,366.7l25.1,10l1.3-22.6c0,0,10-16.3,12.5-16.3s11.3-11.3,11.3-11.3l3.8-10l-3.8-43.9l12.5,27.6
		l-1.3-23.8l6.3-18.8l-17.6-38.9c12.5,2.5,27.6,42.7,27.6,42.7v-15.1l-18.8-36.4l25.1,16.3c-1.3-7.5-23.8-27.6-23.8-27.6h11.3
		c0,0-8.8-10-5-12.5c3.8-2.5,5-12.5,5-12.5l-8.8,5v-5c0-61.5-45.2-67.8-45.2-67.8c-10-35.1-59-31.4-59-31.4L273.8,53l-21.3-2.5
		l-42.7,1.3C201,41.7,142,89.4,142,89.4s-25.1,22.6-26.4,23.8c-1.3,1.3-21.3,13.8-25.1,16.3c-3.8,2.5-7.5,23.8-7.5,23.8
		s0,33.9,0,37.6s3.8,20.1,3.8,20.1S74.3,235,75.5,236.2c1.3,1.3,5,5,5,5v22.6c0,0-1.3,27.6,0,30.1c1.3,2.5,8.8,10,11.3,13.8
		s5,11.3,5,11.3l-8.8,10l13.8,7.5l-6.3,5l6.3,8.8c0,0,2.5,6.3-1.3,7.5c-3.8,1.3-5,18.8-5,18.8s20.1,11.3,25.1,11.3
		s36.4-2.5,36.4-2.5s-6.3-23.8-10-33.9c-3.8-10,2.5-38.9,2.5-38.9l-5-40.2l-1.3-25.1l-2.5-16.3c0,0-5,8.8,17.6,22.6
		c22.6,13.8,10,8.8,10,8.8l-16.3-37.6c0,0,20.1-2.5,23.8,15.1l-1.3-48.9l16.3-7.5c0,0-8.8,5-7.5,17.6c1.3,12.5,6.3,17.6,6.3,17.6
		l12.5-32.6l-2.5,27.6l26.4-23.8l8.8,10c0,0-10,32.6-28.9,23.8c0,0,27.6,25.1,43.9-16.3l27.6,8.8l20.1,7.5c0,0,10,8.8,5,13.8
		c-5,5-10,10-10,10s36.4-8.8,32.6-21.3c-3.8-12.5,0-13.8,0-13.8l12.5,12.5l13.8,3.8l5,3.8c0,0-6.3,30.1-22.6,102.9L340.3,366.7z"/>
	<path class="st5" d="M182.8,256.9l26.4-8.8l12.5,5C221.7,253.2,209.2,278.3,182.8,256.9z"/>
	<path class="st5" d="M283.2,260.7c0,0,23.8-22.6,43.9,5C327.1,265.7,300.8,280.8,283.2,260.7z"/>
	<path d="M191.6,253.7l17-5.4c0,0,2.4,7.4-4.2,14.5C204.4,262.8,191.3,266.9,191.6,253.7z"/>
	<circle cx="304.7" cy="260.9" r="8.6"/>
	<g>
		<path d="M177.6,260.2c-0.4-0.7,6.3-5,15.4-8.4c9.1-3.5,16.9-4.7,17.1-3.9c0.2,0.9-7.1,3.5-16,6.9C185.3,258.1,178,261,177.6,260.2
			z"/>
	</g>
	<g>
		<ellipse transform="matrix(0.1117 -0.9937 0.9937 0.1117 -52.2486 441.6396)" cx="220.9" cy="250" rx="1.6" ry="13.6"/>
	</g>
	<g>
		<path d="M183.3,258.5c0.2-0.4,2.8,0.4,6.8,1.8c4,1.3,9.6,3.2,15.8,2.8c6.2-0.4,11.3-3.2,14.6-5.7c3.3-2.5,4.8-4.7,5.2-4.4
			c0.3,0.2-0.6,2.9-3.8,6.1c-1.6,1.6-3.7,3.3-6.4,4.6c-1.3,0.7-2.8,1.2-4.4,1.7c-1.6,0.4-3.3,0.7-5,0.9c-3.5,0.2-6.8-0.3-9.6-1.1
			c-2.8-0.8-5.2-1.8-7.2-2.8C185.3,260.4,183.1,258.9,183.3,258.5z"/>
	</g>
	<g>
		<path d="M281.5,258.1c-0.1-0.1,0.2-1,1.4-2.1c1.1-1.2,3.1-2.6,5.7-3.7c2.6-1.2,6-2,9.6-2.8c1.8-0.4,3.7-0.8,5.9-1
			c2.1-0.2,4.5,0,6.6,0.7c2.2,0.6,4.2,1.5,6,2.5c1.8,1,3.5,2,5.1,3c3.2,2,5.8,4.2,7.8,6.3c4,4.2,5.2,7.6,4.9,7.8
			c-0.4,0.3-2.2-2.7-6.4-6.2c-2.1-1.8-4.7-3.6-7.8-5.4c-3.1-1.8-6.6-3.8-10.4-4.9c-1.9-0.5-3.7-0.7-5.6-0.6
			c-1.9,0.1-3.7,0.4-5.5,0.7c-3.6,0.6-6.8,1.2-9.3,2C284.3,255.9,281.9,258.5,281.5,258.1z"/>
	</g>
	<g>
		<path d="M283.7,261.8c0.6-1,9.1,6.5,22,7.4c6.4,0.6,12.3,0.1,16.6-0.2c4.3-0.3,7-0.4,7.1,0.1c0.1,0.4-2.5,1.3-6.8,2.1
			c-4.3,0.8-10.4,1.7-17.2,1.1c-6.8-0.6-12.8-3-16.5-5.6C285.3,264.2,283.4,262.1,283.7,261.8z"/>
	</g>
	<polygon class="st4" points="234.2,239.4 212.9,236.9 195.3,230.6 175.3,248.2 180.3,250.7 194.1,243.1 221.7,243.1 	"/>
	<g>
		<path d="M258.2,254.1c0,0.1-0.2,0.2-0.5,0.1c-0.3-0.1-0.7-0.4-0.9-0.9c-0.2-0.5-0.3-1.2-0.4-1.7c-0.1-0.6-0.2-1.3-0.2-2.1
			c-0.3-3.1-0.5-7.5-0.5-12.3c0-9.6,0.7-17.3,1.6-17.3c0.9,0,1.6,7.8,1.6,17.3c0,4.8-0.2,9.1-0.5,12.3c-0.1,0.8-0.1,1.5-0.2,2.1
			c-0.1,0.7-0.2,1.1-0.2,1.4C257.9,253.7,258.3,253.9,258.2,254.1z"/>
	</g>
	<path d="M216.7,362.3c0,0,13.8-3.8,23.8-3.8s36.4,6.3,36.4,6.3"/>
</g>
</svg>
